<svg xmlns="http://www.w3.org/2000/svg" width="80" height="80" viewBox="0 0 80 80">
    <g fill="currentcolor">
        <path d="M44.013 25.398V6.733c0-2.17-1.767-3.935-3.938-3.935h-5.163V1.312C34.913.587 34.325 0 33.6 0c-.725 0-1.313.587-1.313 1.312v1.486h-8.575V1.312C23.712.587 23.125 0 22.4 0c-.725 0-1.313.587-1.313 1.312v1.486h-8.575V1.312C12.512.587 11.925 0 11.2 0c-.725 0-1.313.587-1.313 1.312v1.486h-5.95C1.768 2.798 0 4.564 0 6.733v24.135c0 2.17 1.766 3.935 3.938 3.935h20.38c1.876 3.337 5.45 5.597 9.544 5.597 6.031 0 10.938-4.904 10.938-10.93 0-1.44-.28-2.813-.787-4.072zm-8.838-4.132c3.534.563 6.333 3.36 6.896 6.892h-6.896v-6.892zM3.938 32.18c-.724 0-1.313-.588-1.313-1.312V6.733c0-.723.589-1.311 1.313-1.311h5.95v1.574c0 .724.587 1.311 1.312 1.311.725 0 1.313-.587 1.313-1.311V5.422h8.574v1.574c0 .724.588 1.311 1.313 1.311s1.313-.587 1.313-1.311V5.422h8.575v1.574c0 .724.587 1.311 1.312 1.311.725 0 1.313-.587 1.313-1.311V5.422h5.162c.724 0 1.313.588 1.313 1.311v14.811c-1.963-1.862-4.613-3.005-7.526-3.005-6.03 0-10.937 4.903-10.937 10.93 0 .936.118 1.844.34 2.711H3.938zm29.924 5.597c-4.583 0-8.312-3.727-8.312-8.308 0-4.134 3.038-7.572 7-8.203v8.203c0 .725.588 1.312 1.313 1.312h8.208c-.631 3.96-4.072 6.996-8.209 6.996z" transform="translate(18 20)"/>
        <path d="M9.067 14H6.933c-.736 0-1.333.582-1.333 1.3 0 .718.597 1.3 1.333 1.3h2.134c.736 0 1.333-.582 1.333-1.3 0-.718-.597-1.3-1.333-1.3zM16.867 14h-2.134c-.736 0-1.333.582-1.333 1.3 0 .718.597 1.3 1.333 1.3h2.134c.736 0 1.333-.582 1.333-1.3 0-.718-.597-1.3-1.333-1.3zM16.867 19.6h-2.134c-.736 0-1.333.582-1.333 1.3 0 .718.597 1.3 1.333 1.3h2.134c.736 0 1.333-.582 1.333-1.3 0-.718-.597-1.3-1.333-1.3zM9.067 19.6H6.933c-.736 0-1.333.582-1.333 1.3 0 .718.597 1.3 1.333 1.3h2.134c.736 0 1.333-.582 1.333-1.3 0-.718-.597-1.3-1.333-1.3zM9.067 25.2H6.933c-.736 0-1.333.582-1.333 1.3 0 .718.597 1.3 1.333 1.3h2.134c.736 0 1.333-.582 1.333-1.3 0-.718-.597-1.3-1.333-1.3zM16.867 25.2h-2.134c-.736 0-1.333.582-1.333 1.3 0 .718.597 1.3 1.333 1.3h2.134c.736 0 1.333-.582 1.333-1.3 0-.718-.597-1.3-1.333-1.3z" transform="translate(18 20)"/>
    </g>
</svg>
