<svg xmlns="http://www.w3.org/2000/svg" width="80" height="80" viewBox="0 0 80 80">
    <path fill="currentcolor" fill-rule="evenodd" d="M55.025 24c.608 0 1.102.493 1.102 1.101v1.455h9.168c2.129 0 3.954 1.448 4.44 3.52l1.822 7.788 3.19 1.853c.34.197.55.56.55.952v10.689c0 .608-.494 1.101-1.102 1.101h-5.632c-.512 2.516-2.74 4.415-5.405 4.415s-4.894-1.9-5.406-4.415h-38.3c-.511 2.516-2.74 4.415-5.405 4.415-2.664 0-4.893-1.9-5.405-4.415h-3.54c-.609 0-1.102-.493-1.102-1.102V25.101C4 24.493 4.493 24 5.101 24zM14.047 48.044c-1.827 0-3.313 1.487-3.313 3.314s1.486 3.313 3.313 3.313c1.827 0 3.313-1.486 3.313-3.313 0-1.827-1.486-3.314-3.313-3.314zm49.11 0c-1.752 0-3.19 1.369-3.304 3.093.014.071.022.145.022.22 0 .076-.008.15-.022.221.114 1.725 1.552 3.093 3.305 3.093 1.827 0 3.313-1.486 3.313-3.313 0-1.827-1.486-3.314-3.313-3.314zm-9.233-3.485H6.203v5.697h2.439c.512-2.516 2.74-4.415 5.405-4.415s4.894 1.9 5.406 4.415h34.47V48.51H27.989c-.608 0-1.101-.493-1.101-1.101 0-.609.493-1.102 1.101-1.102h25.936V44.56zm6.39-15.8h-4.187v21.497h1.625c.512-2.516 2.741-4.415 5.406-4.415 2.664 0 4.893 1.9 5.405 4.415h4.53v-3.025h-3.197c-.608 0-1.101-.493-1.101-1.101v-3.37c0-.608.493-1.1 1.101-1.1h3.197v-.356l-2.797-1.624h-8.881c-.608 0-1.102-.493-1.102-1.102V28.76zM24.27 46.306c.608 0 1.101.493 1.101 1.102 0 .608-.493 1.101-1.101 1.101h-.93c-.608 0-1.101-.493-1.101-1.101 0-.609.493-1.102 1.101-1.102zm48.822-2.444h-2.096v1.166h2.096v-1.166zm-19.17-17.659H6.204v16.153h47.72V26.203zm11.372 2.556h-2.778v8.718h6.687l-1.615-6.899c-.25-1.07-1.194-1.819-2.294-1.819z"/>
</svg>
