<?xml version="1.0" encoding="utf-8"?>
<!-- Generator: Adobe Illustrator 19.0.0, SVG Export Plug-In . SVG Version: 6.00 Build 0)  -->
<svg version="1.1" id="Layer_1" xmlns="http://www.w3.org/2000/svg" xmlns:xlink="http://www.w3.org/1999/xlink" width="100" height="100"
	 viewBox="-266 357 79 79" style="enable-background:new -266 357 79 79;" xml:space="preserve">
<style type="text/css">
	.st0{fill:currentcolor;}
</style>
<path class="st0" d="M-201.8,405.3l-4.8-6.4c-0.1-0.2-0.3-0.3-0.5-0.4l-5.6-2.3v-11.4h0.4c0.7,0,1.2-0.5,1.2-1.2v-1.2
	c0-2.4-2-4.4-4.4-4.4h-28.8c-2.4,0-4.4,2-4.4,4.4v1.2c0,0.7,0.5,1.2,1.2,1.2h0.4v17.4l-4.3,2.8c-0.3,0.2-0.5,0.6-0.5,1v4.8
	c0,0.7,0.5,1.2,1.2,1.2h3.8c0.5,1.9,2.3,3.2,4.2,3.2s3.7-1.3,4.2-3.2h25.1c0.5,1.9,2.3,3.2,4.2,3.2s3.7-1.3,4.2-3.2h2.2
	c0.7,0,1.2-0.5,1.2-1.2l0-4.8C-201.6,405.7-201.6,405.5-201.8,405.3z M-244.4,380.4h28.8c1.1,0,2,0.9,2,2h-32.8
	C-246.4,381.3-245.5,380.4-244.4,380.4z M-215.2,384.8v10.5c-0.3-0.1-0.6-0.1-0.9,0.1c-0.3,0.1-0.5,0.4-0.6,0.7l-0.5,1.6l-4.9-4.4
	l0.6-0.6c1.1-1.2-0.6-2.8-1.7-1.7l-3.1,3.2c-1.1,1.2,0.6,2.8,1.7,1.7l0.9-0.9l5.8,5.2l-1.6,4.7h-5.9v-3.2c0-2.4-2-4.4-4.4-4.4h-3.6
	v-0.8c0-2-1.6-3.6-3.6-3.6h-2.4c-0.7,0-1.2,0.5-1.2,1.2v3.2h-4v-12.4H-215.2z M-238.4,401.6v-6.4h1.2c0.7,0,1.2,0.5,1.2,1.2v2
	c0,0.7,0.5,1.2,1.2,1.2h4.8c1.1,0,2,0.9,2,2C-228,401.6-238.4,401.6-238.4,401.6z M-244.8,401.6v-2h4v2
	C-240.8,401.6-244.8,401.6-244.8,401.6z M-242.8,412.8c-1.1,0-2-0.9-2-2c0-1.1,0.9-2,2-2s2,0.9,2,2
	C-240.8,411.9-241.7,412.8-242.8,412.8z M-209.2,412.8c-1.1,0-2-0.9-2-2c0-1.1,0.9-2,2-2s2,0.9,2,2
	C-207.2,411.9-208.1,412.8-209.2,412.8z M-204,409.6h-1c-0.5-1.9-2.3-3.2-4.2-3.2s-3.7,1.3-4.2,3.2h-25.1c-0.5-1.9-2.3-3.2-4.2-3.2
	s-3.7,1.3-4.2,3.2h-2.6v-3l4-2.6h17.6v2c0,0.7,0.5,1.2,1.2,1.2h8c0.5,0,1-0.3,1.1-0.8l2.8-8.4l6.5,2.6l4.4,5.8L-204,409.6
	L-204,409.6z"/>
</svg>
