<?xml version="1.0" encoding="utf-8"?>
<svg width="100px" height="100px" viewBox="0 0 80 80" version="1.1" xmlns:xlink="http://www.w3.org/1999/xlink" xmlns="http://www.w3.org/2000/svg">
  <desc>Created with Lunacy</desc>
  <g id="ico-/-services-/-exotic">
    <path d="M54.4974 7.21455L64.8532 7.21455C71.4406 7.21455 76.8 12.5737 76.8 19.1613L76.8 21.5661C76.8 22.8495 75.756 23.8935 74.4726 23.8935L70.1895 23.8935C68.8812 25.3672 66.9742 26.2983 64.8532 26.2983C62.7322 26.2983 60.8254 25.3672 59.517 23.8935L19.688 23.8935C18.3795 25.3672 16.4727 26.2983 14.3515 26.2983C11.5323 26.2983 9.09 24.6547 7.93125 22.2759L2.56005 20.7412C1.05285 20.3106 0 18.915 0 17.3472L0 14.3515C0 13.4724 0.49035 12.7057 1.21155 12.3099L1.2582 8.0823C1.27035 6.99075 2.02365 6.0663 3.09 5.83395L4.47555 5.532L2.83455 2.25L1.125 2.25C0.5037 2.25 0 1.7463 0 1.125C0 0.5037 0.5037 0 1.125 0L8.33955 0C8.96085 0 9.46455 0.5037 9.46455 1.125C9.46455 1.7463 8.96085 2.25 8.33955 2.25L5.3502 2.25L6.744 5.03775L26.2009 0.79785C28.63 0.26865 31.1223 0.00015 33.6088 0.00015L43.8285 0.00015C46.056 0.00015 48.1503 0.8676 49.7254 2.4426L54.4974 7.21455ZM2.25 17.3472C2.25 17.9157 2.6316 18.4216 3.1782 18.5778L7.23975 19.7383C7.22445 19.5478 7.2144 19.3557 7.2144 19.1613C7.2144 15.2259 10.4162 12.0241 14.3516 12.0241L22.185 12.0241C24.4126 12.0241 26.507 12.8916 28.0819 14.4667L28.6654 15.0502C29.8156 16.2003 31.3449 16.8337 32.9715 16.8337L47.2296 16.8337C48.2137 16.8337 49.1391 16.4505 49.8349 15.7545L56.1252 9.4644L42.0078 9.4644C41.3865 9.4644 40.8828 8.9607 40.8828 8.3394C40.8828 7.7181 41.3865 7.2144 42.0078 7.2144L51.3154 7.2144L48.1345 4.03335C46.9843 2.8833 45.4551 2.24985 43.8285 2.24985L35.9176 2.24985L35.9176 7.2144L37.1979 7.2144C37.8192 7.2144 38.3229 7.7181 38.3229 8.3394C38.3229 8.9607 37.8192 9.4644 37.1979 9.4644L32.3878 9.4644C30.4416 9.4644 28.858 7.881 28.858 5.9346L28.858 2.60175C28.1276 2.70945 27.4005 2.83905 26.6799 2.9961L3.56895 8.03235C3.53355 8.04 3.5085 8.0709 3.50805 8.1072L3.46485 12.0241L5.9349 12.0241C6.5562 12.0241 7.0599 12.5278 7.0599 13.1491C7.0599 13.7704 6.5562 14.2741 5.9349 14.2741L2.3274 14.2741C2.28465 14.2741 2.25 14.3088 2.25 14.3515L2.25 17.3472ZM33.6678 2.25015L33.6678 7.21455L32.388 7.21455C31.6822 7.21455 31.1082 6.64035 31.1082 5.93475L31.1082 2.34795C31.9405 2.28375 32.7751 2.25015 33.609 2.25015L33.6678 2.25015ZM74.55 21.5661C74.55 21.6088 74.5154 21.6435 74.4726 21.6435L71.5444 21.6435C71.8323 20.8699 71.9904 20.0338 71.9904 19.1613C71.9904 15.2259 68.7887 12.0241 64.8532 12.0241C60.9178 12.0241 57.7161 15.2259 57.7161 19.1613C57.7161 20.0338 57.8742 20.8699 58.162 21.6435L21.0427 21.6435C21.3306 20.8699 21.4887 20.0338 21.4887 19.1613C21.4887 17.2716 20.749 15.5523 19.5459 14.2741L22.185 14.2741C23.8116 14.2741 25.3408 14.9076 26.4909 16.0578L27.0744 16.6413C28.6495 18.2164 30.7438 19.0839 32.9713 19.0839L47.2294 19.0839C48.8146 19.0839 50.305 18.4665 51.4258 17.3457L59.307 9.46455L64.8531 9.46455C70.2 9.46455 74.5498 13.8145 74.5498 19.1613L74.5498 21.5661L74.55 21.5661ZM14.3515 24.0483C11.6568 24.0483 9.4644 21.8559 9.4644 19.1611C9.4644 16.4664 11.6568 14.2741 14.3515 14.2741C17.0463 14.2741 19.2387 16.4665 19.2387 19.1613C19.2387 21.856 17.0464 24.0483 14.3515 24.0483ZM59.9661 19.1611C59.9661 21.8559 62.1585 24.0483 64.8532 24.0483C67.548 24.0483 69.7404 21.856 69.7404 19.1613C69.7404 16.4665 67.548 14.2741 64.8532 14.2741C62.1585 14.2741 59.9661 16.4664 59.9661 19.1611ZM13.2205 19.1613C13.2205 18.54 13.7242 18.0363 14.3455 18.0363C14.9668 18.0363 15.4765 18.54 15.4765 19.1613C15.4765 19.7826 14.9788 20.2863 14.3575 20.2863L14.3455 20.2863C13.7242 20.2863 13.2205 19.7826 13.2205 19.1613ZM64.8473 18.0363C64.2259 18.0363 63.7222 18.54 63.7222 19.1613C63.7222 19.7826 64.2259 20.2863 64.8473 20.2863L64.8592 20.2863C65.4805 20.2863 65.9782 19.7826 65.9782 19.1613C65.9782 18.54 65.4686 18.0363 64.8473 18.0363Z" transform="translate(3 29)" id="ico-/-services-/-exotic" fill="currentcolor" fill-rule="evenodd" stroke="none" />
  </g>
</svg>