<?xml version="1.0" encoding="utf-8"?>
<svg width="100px" height="100px" viewBox="0 0 80 80" version="1.1" xmlns:xlink="http://www.w3.org/1999/xlink" xmlns="http://www.w3.org/2000/svg">
  <desc>Created with Lunacy</desc>
  <g id="ico-/-services-/-antique">
    <path d="M39.3686 23.1355L46.5096 23.1355C48.8152 23.1355 50.6908 21.2605 50.6908 18.9549L50.6908 8.92886L56.9317 8.92886C59.3661 8.92886 61.7328 9.39139 63.9659 10.3034C64.5477 10.5403 65.2116 10.2618 65.4497 9.67995C65.6871 9.09867 65.4081 8.43426 64.8262 8.19676C63.0462 7.46942 61.1913 6.99858 59.2877 6.78542L59.2877 5.94883C59.2877 3.78283 57.5255 2.01998 55.3589 2.01998C55.2342 2.01998 55.1095 2.04076 54.9907 2.08173L41.6153 6.65361L32.2887 6.65361L35.3263 1.73617C35.6565 1.2012 35.4908 0.499982 34.9564 0.169857C34.4221 -0.160268 33.7208 0.00538864 33.3907 0.540357L29.6139 6.65361L11.6488 6.65361C9.99281 6.65361 8.57553 7.68792 8.00553 9.1438L6.98666 9.1438C5.48566 9.1438 4.26431 10.3651 4.26431 11.8661L4.26431 13.2312C4.26431 14.7328 5.48566 15.9535 6.98666 15.9535L7.73716 15.9535L7.73716 16.6904C3.41822 17.005 0 20.6168 0 25.0141L0 28.4965C0 29.5421 0.850844 30.3929 1.89644 30.3929L3.41406 30.3929C3.90806 34.4619 7.38091 37.6248 11.5811 37.6248C15.7807 37.6248 19.2535 34.4619 19.7481 30.3929L43.6911 30.3929C44.3193 30.3929 44.8287 29.8835 44.8287 29.2553C44.8287 28.6271 44.3193 28.1177 43.6911 28.1177L35.4819 28.1177C34.6999 27.5821 32.436 26.0289 29.9119 24.2797C31.0442 23.4175 31.9348 22.268 32.4829 20.9321C32.721 20.3508 32.4431 19.6864 31.8618 19.4477C31.2805 19.2096 30.6161 19.4875 30.3774 20.0688C29.8882 21.2616 29.0189 22.2479 27.9068 22.8855C26.7496 22.0786 25.6049 21.2759 24.5842 20.5509C22.3238 18.9478 20.7652 17.9794 19.2927 17.41C19.5338 14.4501 22.018 12.1143 25.039 12.1143C27.5387 12.1143 29.7409 13.7085 30.5199 16.0818C30.7159 16.6785 31.3583 17.0039 31.9556 16.8079C32.5529 16.612 32.8783 15.969 32.6824 15.3722C31.5958 12.0627 28.5243 9.83908 25.039 9.83908C20.9623 9.83908 17.5863 12.8886 17.0673 16.8257C16.2747 16.7082 15.4232 16.6654 14.4293 16.6654L10.0124 16.6654L10.0124 10.5652C10.0124 9.66273 10.7463 8.92886 11.6488 8.92886L35.188 8.92886L35.188 18.9549C35.188 21.2605 37.0637 23.1355 39.3686 23.1355ZM55.5245 4.30354C56.3587 4.38726 57.0125 5.09323 57.0125 5.94883L57.0125 6.6542C56.9857 6.6542 56.9584 6.65361 56.9317 6.65361L48.6507 6.65361L55.5245 4.30354ZM48.4108 18.9549L48.4108 8.92886L37.468 8.92886L37.468 18.9549C37.468 20.0035 38.3206 20.8561 39.3686 20.8561L46.5096 20.8561C47.5582 20.8561 48.4108 20.0035 48.4108 18.9549ZM69.5827 10.9179L69.5816 10.9167L69.4664 10.83C68.9641 10.4524 68.251 10.554 67.8733 11.0563C67.4963 11.5586 67.5978 12.2723 68.1002 12.6493L68.2023 12.7265L68.2029 12.7271C72.8709 16.2836 75.5487 21.6844 75.5487 27.5453L75.5487 28.1171L75.1254 28.1171L75.1254 27.8214C75.1254 21.6695 70.1207 16.6648 63.9688 16.6648L61.3219 16.6648C55.1707 16.6648 50.1659 21.6695 50.1659 27.8214L50.1659 28.1171L48.9244 28.1171C48.2956 28.1171 47.7868 28.6265 47.7868 29.2553C47.7868 29.8835 48.2962 30.3929 48.9244 30.3929L54.4783 30.3929C54.9723 34.4613 58.4458 37.6248 62.6454 37.6248C66.8456 37.6248 70.3178 34.4613 70.8124 30.3929L75.9276 30.3929C76.9732 30.3929 77.824 29.5421 77.824 28.4965L77.824 27.5453C77.824 20.9689 74.8202 14.9085 69.5827 10.9179ZM41.7394 13.5001L40.128 13.5001C39.498 13.5001 38.988 12.9901 38.988 12.3601C38.988 11.7302 39.498 11.2201 40.128 11.2201L41.7394 11.2201C42.3694 11.2201 42.8794 11.7302 42.8794 12.3601C42.8794 12.9901 42.3694 13.5001 41.7394 13.5001ZM6.54016 13.2312C6.54016 13.4776 6.74025 13.6783 6.98666 13.6783L7.73716 13.6783L7.73716 11.419L6.98666 11.419C6.74025 11.419 6.54016 11.6197 6.54016 11.8661L6.54016 13.2312ZM23.2667 22.407C18.8617 19.2815 17.5821 18.9407 14.4293 18.9407L8.34931 18.9407C4.99997 18.9407 2.27584 21.6654 2.27584 25.0141L2.27584 28.1177L3.45028 28.1177C4.066 24.1841 7.47709 21.1649 11.5811 21.1649C15.6845 21.1649 19.0956 24.1841 19.7113 28.1177L31.4634 28.1177C29.1015 26.4902 25.8062 24.2084 23.2667 22.407ZM72.8496 28.1177L70.7756 28.1177C70.1599 24.1841 66.7488 21.1649 62.6454 21.1649C58.542 21.1649 55.1303 24.1841 54.5152 28.1177L52.4412 28.1177L52.4412 27.8214C52.4412 22.9247 56.4247 18.9407 61.3219 18.9407L63.9688 18.9407C68.8655 18.9407 72.8496 22.9247 72.8496 27.8214L72.8496 28.1177ZM11.5811 35.3489C8.29766 35.3489 5.62637 32.6783 5.62637 29.3948C5.62637 26.112 8.29766 23.4407 11.5811 23.4407C14.8639 23.4407 17.5352 26.1114 17.5352 29.3948C17.5352 32.6783 14.8639 35.3489 11.5811 35.3489ZM56.6907 29.3948C56.6907 32.6783 59.3619 35.3489 62.6454 35.3489C65.9288 35.3489 68.5995 32.6783 68.5995 29.3948C68.5995 26.1114 65.9288 23.4407 62.6454 23.4407C59.3619 23.4407 56.6907 26.112 56.6907 29.3948ZM13.3362 29.3948C13.3362 30.3644 12.5501 31.15 11.5811 31.15C10.6115 31.15 9.82537 30.3644 9.82537 29.3948C9.82537 28.4252 10.6115 27.6397 11.5811 27.6397C12.5501 27.6397 13.3362 28.4252 13.3362 29.3948ZM62.6454 31.15C63.615 31.15 64.4005 30.3644 64.4005 29.3948C64.4005 28.4252 63.615 27.6397 62.6454 27.6397C61.6758 27.6397 60.8902 28.4252 60.8902 29.3948C60.8902 30.3644 61.6758 31.15 62.6454 31.15Z" transform="translate(1 21)" id="ico-/-services-/-antique" fill="currentcolor" fill-rule="evenodd" stroke="none" />
  </g>
</svg>