<?xml version="1.0" encoding="utf-8"?>
<svg width="100px" height="100px" viewBox="0 0 80 80" version="1.1" xmlns:xlink="http://www.w3.org/1999/xlink" xmlns="http://www.w3.org/2000/svg">
  <desc>Created with Lunacy</desc>
  <g id="ico-/-services-/-equipment">
    <path d="M55.4328 18.9138L55.4328 27.572C59.6707 30.0188 61.5391 35.1558 59.8634 39.7534C58.1876 44.351 53.4519 47.0809 48.6335 46.2269C43.8152 45.3728 40.3062 41.1815 40.3128 36.288C40.3128 35.9478 40.3308 35.6117 40.3639 35.28L27.8823 35.28C26.6012 41.1321 21.7631 45.5364 15.8168 46.2637C9.87045 46.991 4.11345 43.8826 1.4597 38.5118C-1.19405 33.141 -0.165473 26.6798 4.02481 22.3985L4.02481 19.2859C4.02811 18.2247 4.58388 17.2418 5.49153 16.692L9.07564 14.5432C9.54546 14.2612 10.083 14.1122 10.631 14.112L16.1208 14.112L16.1208 6.048L14.1048 6.048C13.8374 6.04815 13.581 5.942 13.3919 5.75293C13.2028 5.56386 13.0967 5.30739 13.0968 5.04L13.0968 2.016C13.0983 0.903195 14 0.00144803 15.1128 0L27.9117 0C28.3097 -0.000337967 28.6989 0.117517 29.0299 0.338626L31.3511 1.88606C31.9123 2.25956 32.2494 2.88925 32.2488 3.56344L32.2488 5.04C32.249 5.30739 32.1428 5.56386 31.9537 5.75293C31.7647 5.942 31.5082 6.04815 31.2408 6.048L30.6502 6.048L33.6742 9.072C34.0509 9.45091 34.2632 9.96305 34.2648 10.4974L34.2648 14.112L36.2808 14.112L36.2808 7.056C36.2808 6.78866 36.387 6.53227 36.5761 6.34331L38.5921 4.32731L40.0175 5.75269L38.2968 7.47338L38.2968 14.112L43.202 14.112C43.3809 14.1119 43.559 14.1357 43.7315 14.1829L53.9464 16.9687C54.8228 17.2091 55.431 18.005 55.4328 18.9138ZM27.9117 2.016L15.1128 2.016L15.1128 4.032L30.2328 4.032L30.2328 3.56344L27.9117 2.016ZM18.1368 6.048L27.7994 6.048L32.2488 10.4974L32.2488 11.088L30.6502 11.088C30.1159 11.0897 29.6037 11.3019 29.2248 11.6786L28.7208 12.1826L27.6262 11.088L28.9295 9.78469L27.5041 8.35931L23.4721 12.3913L24.8975 13.8167L26.2008 12.5134L27.2954 13.608L27.1566 13.7468C26.4157 14.4934 26.3699 15.683 27.0513 16.4843L31.066 21.168L28.2168 21.168L28.2168 23.184L32.2488 23.184L32.2488 25.2L26.3074 25.2C26.273 25.1408 26.236 25.0834 26.2008 25.0247L26.2008 20.2309C26.202 19.2195 25.6964 18.2748 24.8542 17.7148L20.2119 14.6199C19.7155 14.2881 19.1316 14.1113 18.5345 14.112L18.1368 14.112L18.1368 6.048ZM30.6502 13.104L32.2488 13.104L32.2488 19.4514L28.582 15.1722L30.6502 13.104ZM10.1132 16.2717L6.53005 18.4206C6.2273 18.604 6.04193 18.9319 6.04081 19.2859L6.04081 20.6915C11.6883 16.7311 19.3751 17.4543 24.1848 22.3985L24.1848 20.2309C24.1854 19.8937 24.0168 19.5787 23.7359 19.3922L19.0936 16.2973C18.9282 16.1865 18.7336 16.1276 18.5345 16.128L10.631 16.128C10.4485 16.1278 10.2695 16.1775 10.1132 16.2717ZM36.2808 16.128L36.2808 19.152L34.2648 19.152L34.2648 16.128L36.2808 16.128ZM53.4168 18.9138L43.202 16.128L38.2968 16.128L38.2968 19.1988C38.6781 19.2795 39.028 19.4683 39.3048 19.7426L40.7302 21.168C41.1069 21.5469 41.3192 22.059 41.3208 22.5934L41.3208 24.192L42.9194 24.192C43.4538 24.1937 43.9659 24.4059 44.3448 24.7826L46.5394 26.9772C48.7245 26.0692 51.16 25.9615 53.4168 26.673L53.4168 25.2L50.8102 25.2C50.2759 25.1983 49.7637 24.9861 49.3848 24.6094L47.9594 23.184C47.5827 22.8051 47.3705 22.293 47.3688 21.7586L47.3688 21.168C47.3703 20.0552 48.272 19.1534 49.3848 19.152L53.4168 19.152L53.4168 18.9138ZM14.1048 44.352C9.21244 44.352 4.8018 41.4049 2.92957 36.8849C1.05734 32.365 2.09222 27.1623 5.55165 23.7028C9.01108 20.2434 14.2138 19.2085 18.7338 21.0808C23.2537 22.953 26.2008 27.3636 26.2008 32.256C26.1935 38.9334 20.7822 44.3447 14.1048 44.352ZM37.8794 21.168L34.2648 21.168L34.2648 29.232L39.3048 29.232L39.3048 22.5934L37.8794 21.168ZM53.4168 23.184L50.8102 23.184L49.3848 21.7586L49.3828 21.168L53.4168 21.168L53.4168 23.184ZM14.1048 24.192C9.65119 24.192 6.04081 27.8024 6.04081 32.256C6.04081 36.7096 9.65119 40.32 14.1048 40.32C18.5584 40.32 22.1688 36.7096 22.1688 32.256C22.1637 27.8045 18.5563 24.1971 14.1048 24.192ZM14.1048 38.304C10.7646 38.304 8.05681 35.5962 8.05681 32.256C8.05681 28.9158 10.7646 26.208 14.1048 26.208C17.445 26.208 20.1528 28.9158 20.1528 32.256C20.1492 35.5947 17.4435 38.3004 14.1048 38.304ZM28.2168 32.256C28.2168 32.5962 28.1896 32.9297 28.1658 33.264L40.7778 33.264C41.4589 31.1167 42.837 29.258 44.6938 27.9823L42.9194 26.208L41.3208 26.208L41.3208 29.232C41.3194 30.3448 40.4176 31.2466 39.3048 31.248L34.2648 31.248C33.152 31.2466 32.2503 30.3448 32.2488 29.232L32.2488 27.216L27.2703 27.216C27.8931 28.8235 28.214 30.5321 28.2168 32.256ZM50.3928 44.352C45.9392 44.352 42.3288 40.7416 42.3288 36.288C42.3288 31.8344 45.9392 28.224 50.3928 28.224C54.8464 28.224 58.4568 31.8344 58.4568 36.288C58.4517 40.7395 54.8443 44.3469 50.3928 44.352ZM14.1048 33.264C14.6615 33.264 15.1128 32.8127 15.1128 32.256C15.1128 31.6993 14.6615 31.248 14.1048 31.248C13.5481 31.248 13.0968 31.6993 13.0968 32.256C13.0968 32.8127 13.5481 33.264 14.1048 33.264ZM45.3528 36.288C45.3528 33.5045 47.6093 31.248 50.3928 31.248C53.175 31.2513 55.4295 33.5058 55.4328 36.288C55.4328 39.0715 53.1763 41.328 50.3928 41.328C47.6093 41.328 45.3528 39.0715 45.3528 36.288ZM47.3688 36.288C47.3688 37.9581 48.7227 39.312 50.3928 39.312C52.0622 39.3102 53.415 37.9574 53.4168 36.288C53.4168 34.6179 52.0629 33.264 50.3928 33.264C48.7227 33.264 47.3688 34.6179 47.3688 36.288ZM51.4008 36.288C51.4008 36.8447 50.9495 37.296 50.3928 37.296C49.8361 37.296 49.3848 36.8447 49.3848 36.288C49.3848 35.7313 49.8361 35.28 50.3928 35.28C50.9495 35.28 51.4008 35.7313 51.4008 36.288Z" transform="translate(10 17)" id="ico-/-services-/-equipment" fill="currentcolor" fill-rule="evenodd" stroke="none" />
  </g>
</svg>