<?xml version="1.0" encoding="utf-8"?>
<svg width="100px" height="100px" viewBox="0 0 80 80" version="1.1" xmlns:xlink="http://www.w3.org/1999/xlink" xmlns="http://www.w3.org/2000/svg">
  <desc>Created with Lunacy</desc>
  <path d="M34.7781 13.8383C34.7781 6.20499 28.5659 0 20.9311 0C13.2963 0 7.0841 6.20499 7.0841 13.8383L7.0841 14.1315C7.0841 16.6397 7.76778 19.1038 9.06028 21.254L11.9935 26.1383C11.707 26.1189 11.4193 26.0837 11.1328 26.0331L10.9358 25.9967C10.2094 25.8744 9.46609 26.099 8.92782 26.6062L1.16982 33.9161C0.206433 34.8239 0.177358 36.3438 1.09482 37.288L1.18442 37.378C1.74046 37.9484 2.0486 38.6893 2.0486 39.4568C2.0486 41.9022 1.44176 44.3194 0.280562 46.5028C-0.557247 48.078 0.582066 49.98 2.36354 49.98L40.5427 49.98C40.9219 49.98 41.2956 49.8884 41.6321 49.713C43.2034 48.8938 44.8414 48.2003 46.5191 47.6445C47.5059 47.317 48.0667 46.581 48.2824 45.7824C48.432 45.2347 48.4263 44.6274 48.1819 44.0482L48.1548 43.9863L48.7233 43.863C48.8101 44.2042 48.9639 44.5192 49.1644 44.796C49.6238 45.4336 50.3569 45.9179 51.3593 45.9179C51.4753 45.9179 51.5921 45.9106 51.709 45.8956C52.9498 45.736 54.0418 45.0282 54.6787 43.9546C55.3299 42.8574 55.4131 41.5307 54.9026 40.3611L52.6826 35.2892C52.1485 34.0693 50.9397 33.2973 49.6176 33.2973C49.0687 33.2973 48.5284 33.4324 48.0445 33.6891L47.8095 33.2362C47.2322 32.1237 46.0851 31.4406 44.8401 31.4406L43.4874 31.4406C42.3858 31.4406 41.3498 31.9779 40.7245 32.8912L37.3345 37.8417C37.3117 37.7575 37.2851 37.6746 37.2551 37.5933C36.9986 36.8993 36.47 36.282 35.6367 35.9697L33.7827 35.2747C33.6334 35.2187 33.5329 35.1178 33.4918 35.0021C33.4571 34.9043 33.4679 34.8056 33.5269 34.7108C33.5827 34.6212 33.6813 34.5441 33.8037 34.5031L38.9798 32.7724C40.1885 32.3681 41.3031 31.6951 42.2134 30.8178C43.2048 29.8622 43.2744 28.6428 42.8515 27.6607C42.7044 27.3185 42.4856 26.9827 42.1525 26.6779C41.6462 26.2146 40.9777 25.938 40.2361 25.938L40.0843 25.9428L39.2966 25.9957L39.1767 26.0051C38.6975 26.047 38.2256 26.1421 37.7694 26.2888L34.966 27.1895L29.3756 26.9584L32.8024 21.2532C34.095 19.1054 34.7781 16.6423 34.7781 14.1315L34.7781 13.8383ZM9.44439 13.8383C9.44439 7.5128 14.5982 2.36498 20.9311 2.36498C27.264 2.36498 32.4178 7.5128 32.4178 13.8383L32.4178 14.1315C32.4178 16.2106 31.8526 18.2516 30.78 20.0338L21.7699 35.0359C21.6666 35.2079 21.5094 35.3293 21.3301 35.4004C21.2502 35.409 21.1695 35.4135 21.0884 35.4135C20.8194 35.4135 20.5549 35.3648 20.3067 35.2741C20.2224 35.21 20.1492 35.1306 20.0923 35.0359L11.0821 20.0338C10.0109 18.2516 9.44439 16.2093 9.44439 14.1315L9.44439 13.8383ZM29.7428 13.8921C29.7428 9.02358 25.79 5.06285 20.9311 5.06285C16.0722 5.06285 12.1194 9.02358 12.1194 13.8921C12.1194 18.7607 16.0722 22.7214 20.9311 22.7214C25.79 22.7214 29.7428 18.7607 29.7428 13.8921ZM14.637 13.8921C14.637 10.4149 17.4607 7.5855 20.9311 7.5855C24.4014 7.5855 27.2252 10.4149 27.2252 13.8921C27.2252 17.3694 24.4014 20.1987 20.9311 20.1987C17.4607 20.1987 14.637 17.3694 14.637 13.8921ZM52.8736 16.7125L52.8736 19.2352L52.8362 19.2358L52.8113 19.2374C52.7014 19.248 52.6173 19.3064 52.3502 19.6157L52.1388 19.8635L52.0616 19.9516C51.6097 20.4592 50.9051 21.1007 49.7241 21.1007C48.4468 21.1007 47.7268 20.3517 47.2818 19.8319L47.1264 19.6487C46.8159 19.2863 46.7392 19.2409 46.6119 19.2358L46.5618 19.2352C46.4156 19.2365 46.35 19.2652 45.9936 19.6837L45.8431 19.8612C45.3969 20.3804 44.6813 21.1019 43.4288 21.1019C42.1526 21.1019 41.4338 20.3518 40.989 19.8319L40.8054 19.6157C40.5194 19.2835 40.4438 19.2407 40.3222 19.2358L40.2854 19.2352L40.2854 16.7125C41.5616 16.7125 42.2804 17.4615 42.7252 17.9824L42.9088 18.1988L42.965 18.2635C43.2054 18.5367 43.2789 18.5741 43.3929 18.5787L43.4551 18.579L43.4803 18.578C43.5953 18.5702 43.6757 18.5189 43.9512 18.1988L44.1348 17.9824L44.2101 17.8953C44.6596 17.3821 45.368 16.7125 46.5746 16.7125C47.8972 16.7125 48.6223 17.517 49.0625 18.0355L49.1705 18.1629L49.2567 18.2623C49.5226 18.5639 49.5856 18.578 49.7241 18.578L49.7614 18.5774L49.7855 18.5759C49.9034 18.5648 49.9912 18.4994 50.3057 18.1296L50.4333 17.9794L50.5102 17.8908C50.952 17.3892 51.6416 16.7391 52.802 16.7133L52.8736 16.7125ZM35.1732 27.1981L35.1782 27.201L35.2326 27.201L35.2873 27.2028L35.1732 27.1981ZM40.2361 28.303L39.4941 28.3527L39.3585 28.3632C39.0635 28.3907 38.772 28.4502 38.4904 28.5407L35.3935 29.5357C35.3233 29.5582 35.2494 29.5686 35.1756 29.5651L27.9884 29.2682L27.7135 29.7244Q27.3286 30.3449 23.609 36.2817C22.6848 37.7567 20.7424 38.2017 19.2704 37.2758C18.8655 37.0211 18.5238 36.6773 18.2713 36.2706L13.4376 28.4796L13.3063 28.4907C13.0436 28.5109 12.7797 28.521 12.515 28.521C11.8544 28.521 11.1924 28.455 10.5447 28.329L2.78674 35.639C3.81017 36.6439 4.40888 38.0078 4.40888 39.4568C4.40888 42.2971 3.70354 45.0954 2.36354 47.615L40.5427 47.615C42.2211 46.74 43.9753 45.9963 45.7783 45.3991C45.9391 45.3457 45.9899 45.2172 46.0041 45.1644L46.0067 45.1543C46.0206 45.0957 46.0331 44.9685 45.9268 44.8532L45.3643 44.2432C45.0284 43.8791 44.9203 43.3848 45.0754 42.921C45.2302 42.4576 45.617 42.117 46.1102 42.0099L49.3977 41.2969C49.9559 41.1762 50.5421 41.3981 50.868 41.8481C51.1352 42.2175 51.1956 42.6725 51.0336 43.0965C50.9821 43.2312 51.0283 43.3377 51.0664 43.395L51.0816 43.4161C51.1186 43.4638 51.2085 43.5529 51.3593 43.5529C51.376 43.5529 51.393 43.5519 51.4101 43.5497C51.9351 43.4821 52.387 43.1893 52.6498 42.7462C52.9127 42.3032 52.9455 41.7792 52.7401 41.3086L50.5211 36.2391C50.3677 35.8888 50.0131 35.6622 49.6176 35.6622C49.4582 35.6622 49.3006 35.7008 49.1586 35.7741L49.0558 35.831C48.7296 36.0063 48.363 36.0986 47.9906 36.0986C47.1541 36.0988 46.4022 35.6513 46.0284 34.9307L45.7152 34.3267C45.5483 34.0052 45.2129 33.8055 44.8401 33.8055L43.4874 33.8055C43.1578 33.8055 42.8524 33.9639 42.6708 34.2291L38.4529 40.3886C38.1375 40.849 37.5959 41.1133 37.0207 41.0853L36.3358 41.0506C35.7743 41.0222 35.2772 40.7217 35.0061 40.247C34.7351 39.7721 34.7379 39.2065 35.0136 38.7341C35.0917 38.6002 35.0645 38.4764 35.0416 38.4144C35.0187 38.3524 34.9579 38.2403 34.8097 38.1847L32.9556 37.4897C32.1597 37.1915 31.5446 36.5736 31.2681 35.795C30.9916 35.0161 31.085 34.1646 31.5245 33.4589C31.8726 32.8997 32.4164 32.474 33.0559 32.26L38.2327 30.529C39.11 30.2356 39.9206 29.7461 40.5771 29.1134C40.7709 28.9266 40.7305 28.7199 40.6934 28.6202L40.6844 28.5976L40.675 28.5773C40.6334 28.4924 40.5096 28.303 40.2361 28.303ZM62 50.6106L62 53.1333L61.9626 53.1339L61.9377 53.1355C61.8279 53.1461 61.7437 53.2045 61.4766 53.5138L61.2652 53.7616L61.188 53.8497C60.7361 54.3573 60.0315 54.9988 58.8505 54.9988C57.5732 54.9988 56.8532 54.2498 56.4083 53.7299L56.2528 53.5468C55.9424 53.1843 55.8657 53.139 55.7384 53.1339L55.6883 53.1333C55.542 53.1346 55.4764 53.1633 55.1201 53.5817L54.9695 53.7593C54.5234 54.2785 53.8077 55 52.5552 55C51.279 55 50.5602 54.2499 50.1154 53.7299L49.9318 53.5138C49.6458 53.1815 49.5702 53.1388 49.4486 53.1339L49.4118 53.1333L49.4118 50.6106C50.688 50.6106 51.4068 51.3596 51.8516 51.8805L52.0352 52.0969L52.0915 52.1615C52.3319 52.4348 52.4053 52.4721 52.5193 52.4767L52.5815 52.4771L52.6068 52.476C52.7218 52.4683 52.8021 52.4169 53.0776 52.0969L53.2612 51.8805L53.3365 51.7934C53.7861 51.2801 54.4944 50.6106 55.701 50.6106C57.0236 50.6106 57.7487 51.4151 58.1889 51.9336L58.297 52.061L58.3831 52.1604C58.649 52.462 58.712 52.4761 58.8505 52.4761L58.8879 52.4755L58.9119 52.474C59.0298 52.4629 59.1176 52.3975 59.4321 52.0276L59.5597 51.8774L59.6366 51.7889C60.0784 51.2872 60.7681 50.6372 61.9285 50.6114L62 50.6106Z" id="ico-/-services-/-canada" fill="currentcolor" fill-rule="evenodd" stroke="none" />
</svg>