<?xml version="1.0" encoding="utf-8"?>
<svg width="100px" height="100px" viewBox="0 0 80 80" version="1.1" xmlns:xlink="http://www.w3.org/1999/xlink" xmlns="http://www.w3.org/2000/svg">
  <desc>Created with Lunacy</desc>
  <g id="ico-/-services-/-open">
    <path d="M67.5571 11.3082L70.7476 13.1608C71.0871 13.358 71.296 13.7209 71.2961 14.1133L71.2961 24.8017C71.2961 25.41 70.8029 25.9032 70.1946 25.9032L64.5633 25.9032C64.0514 28.4188 61.8221 30.3179 59.1577 30.3179C56.4932 30.3179 54.2641 28.4188 53.7522 25.903L15.4527 25.903C14.9408 28.4187 12.7116 30.3178 10.0471 30.3178C7.38266 30.3178 5.15354 28.4187 4.64162 25.903L1.10149 25.903C0.493236 25.903 0 25.4099 0 24.8016C3.31188 24.2524 1.65594 22.2821 0 20.3118C-1.46235 18.5719 -2.92469 16.832 -0.965794 16.0707C-0.451527 15.8709 0.441354 15.7487 0.988983 15.6815C10.9986 14.4538 42.2758 15.5549 48.7505 15.7828C49.4551 15.8076 49.8659 15.8221 49.9238 15.8221C50.0993 14.4141 50.0157 10.6017 49.9375 7.03554C49.8983 5.25132 49.8606 3.52876 49.8573 2.19983C49.8543 0.98377 49.9891 -0.99327 50.3122 -2.16561L52.1266 0L61.2949 0C63.4235 0 65.2492 1.44763 65.7344 3.52048L67.5571 11.3082ZM64.7945 16.2048C64.7945 15.5964 65.2877 15.1033 65.896 15.1033L69.0929 15.1033L69.0929 14.7477L66.2964 13.1237L57.415 13.1237C56.8067 13.1237 56.3135 12.6306 56.3135 12.0222L56.3135 2.20309L52.1268 2.20309L52.1268 23.7002L53.7522 23.7002C54.2641 21.1844 56.4932 19.2854 59.1577 19.2854C61.8221 19.2854 64.0514 21.1845 64.5633 23.7002L69.093 23.7002L69.093 20.6753L65.896 20.6753C65.2877 20.6753 64.7945 20.1822 64.7945 19.5738L64.7945 16.2048ZM61.2951 2.2032C62.3953 2.20309 63.3389 2.95132 63.5894 4.02257L65.2039 10.9207L58.5166 10.9207L58.5166 2.2032L61.2951 2.2032ZM69.093 18.4723L66.9975 18.4723L66.9975 17.3062L69.093 17.3062L69.093 18.4723ZM23.9884 19.7502L49.9238 19.7502L49.9238 18.0032L2.20298 18.0032L2.20298 23.7002L4.64162 23.7002C5.15354 21.1844 7.38266 19.2854 10.0471 19.2854C12.7116 19.2854 14.9408 21.1845 15.4527 23.7002L49.9238 23.7002L49.9238 21.9532L23.9884 21.9532C23.3802 21.9532 22.8869 21.46 22.8869 20.8517C22.8869 20.2433 23.3802 19.7502 23.9884 19.7502ZM10.0471 28.115C8.22031 28.115 6.73402 26.6286 6.73402 24.8018C6.73402 22.9749 8.22031 21.4885 10.0471 21.4885C11.8741 21.4885 13.3604 22.9748 13.3604 24.8018C13.3604 26.6287 11.8741 28.115 10.0471 28.115ZM55.8526 25.0224C55.9667 26.7467 57.405 28.115 59.1577 28.115C60.9846 28.115 62.4709 26.6287 62.4709 24.8018C62.4709 22.9748 60.9846 21.4885 59.1577 21.4885C57.405 21.4885 55.9667 22.8568 55.8526 24.5811C55.8671 24.6524 55.8748 24.7262 55.8748 24.8018C55.8748 24.8774 55.8672 24.9511 55.8526 25.0224Z" transform="translate(4 25)" id="ico-/-services-/-open" fill="currentcolor" fill-rule="evenodd" stroke="none" />
  </g>
</svg>