<?xml version="1.0" encoding="utf-8"?>
<svg width="100px" height="100px" viewBox="0 0 80 80" version="1.1" xmlns:xlink="http://www.w3.org/1999/xlink" xmlns="http://www.w3.org/2000/svg">
  <desc>Created with Lunacy</desc>
  <g id="ico-/-services-/-classic">
    <path d="M45.668 9.73397L39.9422 0.571224C39.6894 0.166378 39.237 -0.0384514 38.7912 0.00597383L19.456 0.00597383C14.0932 0.00597383 9.73037 4.36885 9.73037 9.7316L9.73037 9.73397L8.512 9.73397C3.81959 9.73397 0 13.5536 0 18.246L0 29.1923C0 29.2186 0.000828981 29.2447 0.00246228 29.2706C0.00374993 29.2909 0.0055375 29.3112 0.0078129 29.3313C0.0765374 29.9383 0.590276 30.4083 1.216 30.4083L4.06538 30.4083C5.06954 33.2384 7.77343 35.27 10.944 35.27C14.1146 35.27 16.8185 33.2384 17.8226 30.4083L62.4334 30.4083C63.4375 33.2384 66.1414 35.27 69.312 35.27C73.3358 35.27 76.608 31.9978 76.608 27.974C76.608 26.1069 75.9035 24.4016 74.7462 23.11L76.608 23.11C77.2807 23.11 77.824 22.5667 77.824 21.894L77.824 18.2483C77.824 17.6182 77.3465 17.1008 76.7325 17.0386C76.6916 17.0345 76.65 17.0323 76.608 17.0323L75.392 17.0323L75.392 13.3843C75.392 12.7122 74.8487 12.1683 74.176 12.1683L71.744 12.1683C71.3179 12.1683 70.9085 12.2418 70.528 12.3768L70.528 8.51797C70.528 7.84585 69.9847 7.30197 69.312 7.30197C68.6393 7.30197 68.096 7.84585 68.096 8.51797L68.096 9.73397L45.668 9.73397ZM25.5639 9.73397L25.5639 2.43797L19.456 2.43797C15.4333 2.43797 12.1624 5.70894 12.1624 9.7316L12.1624 9.73397L25.5639 9.73397ZM38.241 2.43797L27.9959 2.43797L27.9959 9.73397L42.8005 9.73397L38.241 2.43797ZM2.432 18.246C2.432 14.8937 5.15969 12.166 8.512 12.166L9.73037 12.166L9.73037 17.0971C6.79127 17.4234 4.19969 18.9182 2.432 21.1052L2.432 18.246ZM12.1624 12.166L26.7031 12.166C26.7285 12.1675 26.7541 12.1683 26.7799 12.1683C26.8057 12.1683 26.8313 12.1675 26.8567 12.166L68.096 12.166L68.096 17.0971C62.6313 17.7038 58.368 22.3501 58.368 27.974L58.368 27.9763L21.8904 27.9763L21.8904 27.974C21.8904 22.35 17.6271 17.7038 12.1624 17.0971L12.1624 12.166ZM49.4718 19.399C49.5995 19.4412 49.7295 19.462 49.856 19.462C50.3654 19.462 50.8398 19.1396 51.0102 18.6301L52.2262 14.9845C52.4388 14.3474 52.0932 13.6593 51.4573 13.4467C50.8131 13.2323 50.1321 13.5791 49.9189 14.215L48.7029 17.8606C48.4904 18.4977 48.8359 19.1859 49.4718 19.399ZM53.504 19.462C53.3775 19.462 53.2475 19.4412 53.1198 19.399C52.4839 19.1859 52.1384 18.4977 52.3509 17.8606L53.5669 14.215C53.7789 13.5791 54.4635 13.2323 55.1053 13.4467C55.7412 13.6593 56.0868 14.3474 55.8742 14.9845L54.6582 18.6301C54.4878 19.1396 54.0134 19.462 53.504 19.462ZM56.7678 19.399C56.8955 19.4412 57.0255 19.462 57.152 19.462C57.6614 19.462 58.1358 19.1396 58.3062 18.6301L59.5222 14.9845C59.7348 14.3474 59.3892 13.6593 58.7533 13.4467C58.1091 13.2323 57.4281 13.5791 57.2149 14.215L55.9989 17.8606C55.7864 18.4977 56.1319 19.1859 56.7678 19.399ZM29.184 17.03L31.616 17.03C32.2887 17.03 32.832 16.4867 32.832 15.814C32.832 15.1418 32.2887 14.598 31.616 14.598L29.184 14.598C28.5113 14.598 27.968 15.1418 27.968 15.814C27.968 16.4867 28.5113 17.03 29.184 17.03ZM71.744 14.6003L72.96 14.6003L72.96 17.0323L70.528 17.0323L70.528 15.8163C70.528 15.1454 71.0731 14.6003 71.744 14.6003ZM2.43437 27.9763L3.648 27.9763L3.648 27.974C3.648 23.9501 6.92016 20.678 10.944 20.678C14.9678 20.678 18.24 23.9501 18.24 27.974L18.24 27.9763L19.456 27.9763L19.456 27.974C19.456 27.9499 19.4567 27.9259 19.4581 27.9022C19.4194 23.2427 15.6148 19.462 10.9464 19.462C6.25397 19.462 2.43437 23.2816 2.43437 27.974L2.43437 27.9763ZM62.016 27.9763L60.8 27.9763L60.8 27.974C60.8 23.3055 64.5807 19.501 69.2402 19.4623C69.2639 19.4636 69.2879 19.4643 69.312 19.4643L75.392 19.4643L75.392 20.678L69.312 20.678C65.2882 20.678 62.016 23.9501 62.016 27.974L62.016 27.9763ZM6.18948 29.0031C6.18365 28.9657 6.17612 28.9289 6.16697 28.8927C6.10989 28.5951 6.08 28.288 6.08 27.974C6.08 25.2914 8.26144 23.11 10.944 23.11C13.6266 23.11 15.808 25.2914 15.808 27.974C15.808 30.6565 13.6266 32.838 10.944 32.838C8.61442 32.838 6.66276 31.1929 6.18948 29.0031ZM69.312 23.11C66.6294 23.11 64.448 25.2914 64.448 27.974C64.448 28.2969 64.4796 28.6127 64.5399 28.9182C64.5444 28.9377 64.5484 28.9574 64.552 28.9773C65.0155 31.1799 66.9733 32.838 69.312 32.838C71.9946 32.838 74.176 30.6565 74.176 27.974C74.176 25.2914 71.9946 23.11 69.312 23.11ZM10.944 31.622C8.93297 31.622 7.296 29.985 7.296 27.974C7.296 25.9629 8.93297 24.326 10.944 24.326C12.955 24.326 14.592 25.9629 14.592 27.974C14.592 29.985 12.955 31.622 10.944 31.622ZM69.312 31.622C67.301 31.622 65.664 29.985 65.664 27.974C65.664 25.9629 67.301 24.326 69.312 24.326C71.323 24.326 72.96 25.9629 72.96 27.974C72.96 29.985 71.323 31.622 69.312 31.622ZM10.944 26.758C10.2731 26.758 9.728 27.303 9.728 27.974C9.728 28.6455 10.2731 29.19 10.944 29.19C11.6149 29.19 12.16 28.6455 12.16 27.974C12.16 27.303 11.6149 26.758 10.944 26.758ZM69.312 26.758C68.6411 26.758 68.096 27.303 68.096 27.974C68.096 28.6455 68.6411 29.19 69.312 29.19C69.9829 29.19 70.528 28.6455 70.528 27.974C70.528 27.303 69.9829 26.758 69.312 26.758Z" transform="translate(2 24)" id="ico-/-services-/-classic" fill="currentcolor" fill-rule="evenodd" stroke="none" />
  </g>
</svg>