<svg xmlns="http://www.w3.org/2000/svg" width="100" height="100" viewBox="0 0 80 80">
    <g fill="currentcolor" fill-rule="evenodd">
        <g fill="currentcolor" fill-rule="nonzero">
            <g>
                <g>
                    <g>
                        <g>
                            <path d="M74.405 44.59c-.295-.5-.94-.668-1.443-.374-.503.294-.67.938-.375 1.438.853 1.447 1.303 3.101 1.303 4.783 0 5.217-4.26 9.461-9.495 9.461-5.236 0-9.496-4.244-9.496-9.46 0-1.328.279-2.632.813-3.833l2.803 2.655c-.078.387-.118.78-.118 1.177 0 3.295 2.69 5.976 5.998 5.976 3.307 0 5.997-2.68 5.997-5.976 0-3.295-2.69-5.975-5.997-5.975-.5 0-.994.063-1.475.184l-2.802-2.655c1.32-.666 2.776-1.015 4.277-1.015 2.254 0 4.44.803 6.156 2.262.199.168.442.251.684.251.298 0 .595-.125.803-.369.378-.441.326-1.105-.118-1.481-2.097-1.783-4.77-2.764-7.526-2.764-2.085 0-4.101.55-5.881 1.595l-1.298-1.23c1.923-1.089 4.145-1.712 6.51-1.712.7 0 1.406.056 2.098.165.308.05.621-.04.856-.243l3.329-2.872c.53-.457.932-1.028 1.18-1.665.89-2.276.933-6.574-.762-8.503-4.65-5.291-11.549-7.896-19.427-7.335-1.934.138-3.05 2.267-2.053 3.936l.463.777h-2.2c-.583 0-1.055.47-1.055 1.05 0 .58.472 1.051 1.054 1.051h3.4c.49 1.073.722 2.24.68 3.412-2.116-1.874-4.84-2.92-7.738-2.92-3.822 0-7.342 1.829-9.533 4.919h-7.589c-.597 0-1.182-.205-1.647-.578l-7.717-6.177c-.187-.15-.42-.232-.66-.232h-6.31c-1.75 0-3.175 1.42-3.175 3.163 0 1.016.495 1.977 1.323 2.57l2.27 1.624c.473.339 1.132.231 1.472-.24.34-.472.231-1.128-.242-1.467l-2.27-1.624c-.278-.2-.444-.522-.444-.863 0-.585.478-1.061 1.066-1.061h5.938l7.428 5.946c.839.67 1.893 1.04 2.968 1.04h7.983l6.83 2.601 3.76 1.432c-.197.101-2.731 2.315-6.85 2.315h-2.316c-2.32 0-4.521 1.242-5.704 3.374l-1.743-1.248-13.786-9.865c-.473-.339-1.132-.231-1.472.24-.34.471-.231 1.128.242 1.467L25.87 40.66l-2.273 1.393c-2.148-2.03-5.014-3.18-7.992-3.18C9.206 38.874 4 44.061 4 50.437S9.206 62 15.605 62c6.4 0 11.605-5.187 11.605-11.563 0-.98-.125-1.95-.371-2.894l2.497-1.53v7.878c0 3.003 2.452 5.447 5.466 5.447h5.082v.56h-6.88c-.584 0-1.056.47-1.056 1.051 0 .58.472 1.051 1.055 1.051h7.936c.582 0 1.054-.47 1.054-1.05v-1.612h9.677c.385 0 .74-.209.925-.545.185-.335.172-.745-.034-1.069-1.337-2.102-2.044-4.535-2.044-7.035 0-2.594.757-5.014 2.062-7.054l1.53 1.45c-.865 1.647-1.32 3.48-1.32 5.352C52.79 56.813 57.997 62 64.396 62S76 56.813 76 50.437c0-2.056-.551-4.078-1.595-5.847zm-6.122 5.847c0 2.136-1.744 3.874-3.888 3.874-1.873 0-3.441-1.327-3.807-3.087l1.605 1.52c.596.566 1.378.877 2.202.877.871 0 1.715-.36 2.316-.99.588-.616.9-1.424.88-2.274-.022-.85-.375-1.641-.994-2.227l-1.605-1.52c1.862.286 3.29 1.894 3.29 3.827zm.906-24.1c.795 1.744.55 4.725-.015 5.928-1.423-.24-2.51-1.478-2.51-2.963 0-1.49 1.093-2.729 2.525-2.965zm-25.64.147c2.805 0 5.41 1.192 7.23 3.29-1.058 2.736-3.127 3.68-3.723 4.193l-8.798-3.35-2.007-.765c1.806-2.13 4.451-3.368 7.299-3.368zM29.414 43.197c-.016.1-.032.212-.045.328l-9.374 5.747-.01.006-3.157 1.935c-.513.308-1.183.143-1.492-.368-.155-.256-.197-.557-.117-.846.074-.269.247-.496.495-.645l3.308-2.028.01-.005 4.935-3.025.005-.004 3.757-2.302 1.685 1.207zM13.53 51.93c.599.99 1.655 1.538 2.74 1.538.564 0 1.136-.148 1.655-.46l1.053-.645c-.672 1.163-1.93 1.948-3.372 1.948-2.144 0-3.888-1.738-3.888-3.874s1.744-3.873 3.888-3.873c.191 0 .38.015.566.042l-1.555.953c-.706.424-1.214 1.093-1.432 1.884-.231.837-.105 1.743.345 2.487zM25.1 50.437c0 5.217-4.26 9.461-9.496 9.461-5.236 0-9.496-4.244-9.496-9.46 0-5.218 4.26-9.462 9.496-9.462 2.246 0 4.413.802 6.115 2.228l-3.243 1.988c-.877-.48-1.857-.73-2.872-.73-3.307 0-5.997 2.68-5.997 5.975 0 3.295 2.69 5.976 5.997 5.976 3.2 0 5.82-2.509 5.989-5.655l3.345-2.05c.107.569.162 1.147.162 1.73zm24.785 6.8H34.802c-1.851 0-3.357-1.502-3.357-3.346v-9.667c0-2.185 1.615-3.977 3.674-4.314 1.88-.313 6.1.81 10.8-2.546 3.326-2.374 6.343-3.89 7.278-8.342.362-1.726.244-3.493-.321-5.132h1.25c.582 0 1.054-.47 1.054-1.051 0-.58-.472-1.051-1.054-1.051h-2.262l-1.105-1.851c-.19-.32.015-.739.391-.766 6.573-.468 12.379 1.451 16.539 5.425-1.84.776-3.134 2.594-3.134 4.706 0 2.051 1.22 3.823 2.975 4.634l-1.868 1.612c-.642-.08-1.291-.122-1.936-.122-8.438 0-15.319 6.828-15.319 15.263 0 2.28.508 4.511 1.479 6.547zm5.548-16.784l2.223 2.106.002.002 7.485 7.092c.21.199.33.468.337.757.007.289-.099.564-.299.773-.207.217-.487.337-.788.337-.28 0-.545-.106-.748-.298l-7.483-7.09-.007-.006-2.297-2.177c.483-.54 1.01-1.041 1.575-1.496z" transform="translate(-985 -3045) translate(0 1942) translate(0 132) translate(930 948) translate(55 23)"/>
                            <path d="M40.14 53.527h-3.377c-.65 0-1.176.527-1.176 1.176 0 .65.527 1.176 1.176 1.176h3.378c.65 0 1.176-.526 1.176-1.176 0-.65-.527-1.176-1.176-1.176z" transform="translate(-985 -3045) translate(0 1942) translate(0 132) translate(930 948) translate(55 23)"/>
                        </g>
                    </g>
                </g>
            </g>
        </g>
    </g>
</svg>
