<?xml version="1.0" encoding="UTF-8"?>
<svg width="80px" height="80px" viewBox="0 0 40 40" version="1.1" xmlns="http://www.w3.org/2000/svg" xmlns:xlink="http://www.w3.org/1999/xlink">
    <title>9CF4290F-0E86-4AEC-AA53-CE38F4F12027</title>
    <g id="Mobile" stroke="none" stroke-width="1" fill="none" fill-rule="evenodd">
        <g id="04_service_mobile" transform="translate(-32.000000, -3708.000000)" fill="currentcolor" fill-rule="nonzero">
            <g id="benefits" transform="translate(0.000000, 2672.000000)">
                <g id="3-copy" transform="translate(32.000000, 1036.000000)">
                    <g id="price" transform="translate(20.750000, 18.255207) rotate(-315.000000) translate(-20.750000, -18.255207) translate(12.500000, 3.255207)">
                        <path d="M15.8805853,10.4123248 L11.8468689,5.31194165 C11.1602788,4.44757383 10.1671754,3.87745889 9.07598762,3.71807192 L9.07598762,1.08818686 C9.07598762,0.751022107 8.80012556,0.475160038 8.4629608,0.475160038 C8.12579605,0.475160038 7.84993398,0.751022107 7.84993398,1.08818686 L7.84993398,3.71807192 C6.75874624,3.87132862 5.7656428,4.44144356 5.08518303,5.31194165 L1.03920601,10.4184551 C0.689780728,10.8659646 0.493612145,11.4176888 0.493612145,11.9878037 L0.493612145,27.3073439 C0.499742413,28.6927846 1.62771176,29.8146236 3.01315238,29.8085935 C3.01928264,29.8085935 3.01928264,29.8085935 3.02541291,29.8085935 L13.8943784,29.8085935 C15.279819,29.8207539 16.4139187,28.7050451 16.4261792,27.3196045 C16.4261792,27.3134742 16.4261792,27.3134742 16.4261792,27.3073439 L16.4261792,11.9878037 C16.4261792,11.4176888 16.2300106,10.8659646 15.8805853,10.4123248 Z M8.4629608,9.69508341 C9.44993398,9.69508341 10.2468689,10.4920183 10.2468689,11.4789915 C10.2468689,12.4659646 9.44993398,13.2628995 8.4629608,13.2628995 C7.47598762,13.2628995 6.67905276,12.4659646 6.67905276,11.4789915 C6.67905276,10.4981485 7.47598762,9.69508341 8.4629608,9.69508341 Z M15.2062558,27.3073439 C15.2062558,28.0245853 14.6177501,28.5824397 13.9005087,28.5824397 L3.02541291,28.5824397 C2.30817153,28.5824397 1.71966578,28.0245853 1.71966578,27.3073439 L1.71966578,11.9878037 C1.71966578,11.6935508 1.81775008,11.4054282 2.00165812,11.1786083 L6.04150487,6.0720949 C6.49514471,5.50197996 7.1326926,5.10351253 7.84993398,4.96251636 L7.84993398,8.53033245 C6.21928264,8.8674972 5.17713705,10.4613669 5.5143018,12.0920183 C5.85146655,13.7226696 7.44533628,14.7648152 9.07598762,14.4276505 C10.706639,14.0904857 11.7487846,12.496616 11.4116198,10.8659646 C11.1664091,9.69508341 10.2529991,8.77554318 9.07598762,8.53033245 L9.07598762,4.96251636 C9.32732862,5.01155851 9.57253935,5.09738226 9.80548954,5.20772709 C10.2223478,5.41002594 10.5901639,5.70427881 10.8782865,6.0720949 L14.9242635,11.172478 C15.1081715,11.4054282 15.2062558,11.6935508 15.2062558,11.9878037 L15.2062558,27.3073439 Z" id="Shape"></path>
                        <path d="M10.4185164,22.8322482 C10.1487846,21.9801409 9.35797996,21.3977654 8.4629608,21.3977654 C8.00932096,21.3977654 7.64150487,21.0299493 7.64150487,20.5763095 C7.64150487,20.1226696 8.00932096,19.7548535 8.4629608,19.7548535 C8.91660065,19.7548535 9.28441674,20.1226696 9.28441674,20.5763095 C9.28441674,20.9134742 9.56027881,21.1893363 9.89744356,21.1893363 C10.2346083,21.1893363 10.5104704,20.9134742 10.5104704,20.5763095 C10.5104704,19.6812903 9.9280949,18.8904857 9.07598762,18.6207539 L9.07598762,18.3510221 C9.07598762,18.0138574 8.80012556,17.7379953 8.4629608,17.7379953 C8.12579605,17.7379953 7.84993398,18.0138574 7.84993398,18.3510221 L7.84993398,18.6207539 C6.77100678,18.9579187 6.1702405,20.1104091 6.50740525,21.1893363 C6.77713705,22.0414436 7.56794165,22.623819 8.4629608,22.623819 C8.91660065,22.623819 9.28441674,22.9916351 9.28441674,23.445275 C9.28441674,23.8989148 8.91660065,24.2667309 8.4629608,24.2667309 C8.00932096,24.2667309 7.64150487,23.8989148 7.64150487,23.445275 C7.64150487,23.1081102 7.3656428,22.8322482 7.02847805,22.8322482 C6.69131329,22.8322482 6.41545123,23.1081102 6.41545123,23.445275 C6.41545123,24.3402941 6.9978267,25.1310987 7.84993398,25.4008305 L7.84993398,25.7073439 C7.84993398,26.0445087 8.12579605,26.3203708 8.4629608,26.3203708 C8.80012556,26.3203708 9.07598762,26.0445087 9.07598762,25.7073439 L9.07598762,25.4008305 C10.1549148,25.0636658 10.7556811,23.9111754 10.4185164,22.8322482 Z" id="Path"></path>
                    </g>
                </g>
            </g>
        </g>
    </g>
</svg>