<?xml version="1.0" encoding="UTF-8"?>
<svg width="80px" height="80px" viewBox="0 0 40 40" version="1.1" xmlns="http://www.w3.org/2000/svg" xmlns:xlink="http://www.w3.org/1999/xlink">
    <title>BFF82A0A-CACA-4C9B-B61E-C72D704060AC</title>
    <g id="Mobile" stroke="none" stroke-width="1" fill="none" fill-rule="evenodd">
        <g id="04_service_mobile" transform="translate(-32.000000, -3445.000000)" fill="currentcolor" fill-rule="nonzero">
            <g id="benefits" transform="translate(0.000000, 2672.000000)">
                <g id="3" transform="translate(32.000000, 773.000000)">
                    <g id="door" transform="translate(5.500000, 5.500000)">
                        <path d="M27.718845,14.483645 L20.129725,9.724605 C20.120925,9.71916 20.111905,9.713935 20.102775,9.709095 C19.87392,9.587325 19.589735,9.674115 19.467965,9.90297 C18.95982,10.865195 18.205,11.67507 17.28089,12.249655 C17.16858,12.31868 17.05407,12.38402 16.937525,12.44562 C13.95845,14.02038 10.26685,12.882045 8.69209,9.90297 C8.687195,9.893785 8.682025,9.88482 8.67658,9.87602 C8.539905,9.655745 8.250605,9.587985 8.03033,9.72466 L0.441155,14.483645 C0.167585,14.65464 0.00099,14.95417 0,15.2768 L0,16.426685 C0,16.945115 0.420255,17.36537 0.938685,17.36537 L1.408,17.36537 L1.408,27.22137 C1.408,27.7398 1.828255,28.160055 2.346685,28.160055 L3.28537,28.160055 C3.8038,28.160055 4.224055,27.7398 4.224055,27.22137 L4.224055,15.95737 L23.936055,15.95737 L23.936055,27.22137 C23.936055,27.7398 24.35631,28.160055 24.87474,28.160055 L25.813425,28.160055 C26.331855,28.160055 26.75211,27.7398 26.75211,27.22137 L26.75211,17.36537 L27.221425,17.36537 C27.739855,17.36537 28.16011,16.945115 28.16011,16.426685 L28.16011,15.2768 C28.15901,14.95417 27.992415,14.65464 27.718845,14.483645 Z M27.221315,16.426685 L26.752,16.426685 C26.23357,16.426685 25.813315,16.84694 25.813315,17.36537 L25.813315,27.22137 L24.87463,27.22137 L24.87463,15.95737 C24.87463,15.43894 24.454375,15.018685 23.935945,15.018685 L4.224,15.018685 C3.70557,15.018685 3.285315,15.43894 3.285315,15.95737 L3.285315,27.22137 L2.346685,27.22137 L2.346685,17.36537 C2.346685,16.84694 1.92643,16.426685 1.408,16.426685 L0.938685,16.426685 L0.938685,15.28153 L8.119485,10.794685 C8.6911,11.70609 9.46319,12.47499 10.37696,13.04281 C12.643895,14.442395 15.5067,14.442395 17.773635,13.04281 C18.690815,12.476145 19.46626,11.707135 20.040515,10.794685 L27.221315,15.28153 L27.221315,16.426685 Z" id="Shape"></path>
                        <path d="M14.08,0 C10.19194,0 7.03999844,3.15194 7.03999844,7.04 C7.03923,8.186585 7.32303,9.31546 7.866045,10.325315 C8.450585,11.43318 9.31865,12.366035 10.38169,13.028675 C11.492085,13.71755 12.773255,14.08176 14.08,14.0800063 C15.38856,14.07615 16.669895,13.705395 17.778365,13.00992 C18.838875,12.35245 19.706775,11.426305 20.29401,10.325315 C20.83697,9.31546 21.12077,8.186585 21.1200016,7.04 C21.1200016,3.15194 17.96806,0 14.08,0 Z M19.467965,9.902915 C18.95982,10.86514 18.205,11.675015 17.28089,12.2496 C17.16858,12.318625 17.05407,12.383965 16.937525,12.445565 C13.95845,14.020325 10.26685,12.88199 8.69209,9.902915 C8.21942,9.02297 7.97423,8.038855 7.97862536,7.04 C7.97862536,3.670315 10.71037,0.938685 14.08,0.938685 C17.44963,0.938685 20.1813703,3.670315 20.1813703,7.04 C20.185605,8.0388 19.940415,9.022915 19.467965,9.902915 Z" id="Shape"></path>
                        <path d="M24.405315,16.896 L7.978685,16.896 C7.71947,16.896 7.50937,17.1061 7.50937,17.365315 C7.50937,17.62453 7.71947,17.83463 7.978685,17.83463 L24.40537,17.83463 C24.664585,17.83463 24.874685,17.62453 24.874685,17.365315 C24.874685,17.1061 24.66453,16.896 24.405315,16.896 Z" id="Path"></path>
                        <path d="M6.101315,16.896 L3.754685,16.896 C3.49547,16.896 3.28537,17.1061 3.28537,17.365315 C3.28537,17.62453 3.49547,17.83463 3.754685,17.83463 L6.10137,17.83463 C6.360585,17.83463 6.570685,17.62453 6.570685,17.365315 C6.570685,17.1061 6.36053,16.896 6.101315,16.896 Z" id="Path"></path>
                        <path d="M24.405315,18.773315 L7.978685,18.773315 C7.71947,18.773315 7.50937,18.983415 7.50937,19.24263 C7.50937,19.501845 7.71947,19.711945 7.978685,19.711945 L24.40537,19.711945 C24.664585,19.711945 24.874685,19.501845 24.874685,19.24263 C24.874685,18.983415 24.66453,18.773315 24.405315,18.773315 Z" id="Path"></path>
                        <path d="M6.101315,18.773315 L3.754685,18.773315 C3.49547,18.773315 3.28537,18.983415 3.28537,19.24263 C3.28537,19.501845 3.49547,19.711945 3.754685,19.711945 L6.10137,19.711945 C6.360585,19.711945 6.570685,19.501845 6.570685,19.24263 C6.570685,18.983415 6.36053,18.773315 6.101315,18.773315 Z" id="Path"></path>
                        <path d="M16.896,7.04 L15.957315,7.04 L15.957315,3.285315 C15.957315,2.766885 15.53706,2.34663 15.01863,2.34663 L13.141315,2.34663 C12.622885,2.34663 12.20263,2.766885 12.20263,3.285315 L12.20263,7.04 L11.264,7.04 C11.013475,7.03978 10.773235,7.13977 10.596795,7.31764 C10.231705,7.6857 10.23418,8.28003 10.60224,8.64512 L13.41824,11.46112 C13.59424,11.63569 13.832115,11.733535 14.08,11.7333154 C14.328545,11.73227 14.56653,11.632665 14.74176,11.45639 L17.55776,8.64039 C17.731615,8.46549 17.82968,8.229155 17.8307332,7.982535 C17.83287,7.464215 17.41443,7.0422 16.896,7.04 Z M14.08,10.794685 L11.264,7.978685 L12.202685,7.978685 C12.721115,7.978685 13.14137,7.55843 13.14137,7.04 L13.14137,3.285315 L15.018685,3.285315 L15.018685,7.04 C15.018685,7.55843 15.43894,7.978685 15.95737,7.978685 L16.896,7.978685 L14.08,10.794685 Z" id="Shape"></path>
                    </g>
                </g>
            </g>
        </g>
    </g>
</svg>