<svg xmlns="http://www.w3.org/2000/svg" width="100" height="100" fill="none" viewBox="0 0 100 100">
    <path fill="currentcolor" fill-rule="evenodd" d="M39.67 27c0-.552.449-1 1-1h6.153c.552 0 1 .448 1 1v1.563h12.842c2.345 0 4.246 1.902 4.246 4.247 0 1.418-.404 2.806-1.165 4.003l-.187.293c-.184.289-.502.464-.844.464h-1.72l7.256 8.25c.16.183.249.418.249.661v6.835c0 .553-.448 1-1 1h-5.577c-.368 2.312-2.37 4.079-4.786 4.079-2.415 0-4.418-1.767-4.785-4.079H37.088l-7.305.08c-.4 2.272-2.385 3.999-4.772 3.999-2.415 0-4.418-1.767-4.786-4.079h-3.307c-.35 0-.674-.182-.855-.481l-3.418-5.64c-.095-.156-.145-.335-.145-.518V33.511c0-.841.196-1.67.572-2.422l.109-.218c.242-.485.577-.918.985-1.275.76-.666 1.737-1.033 2.748-1.033h22.757V27zM59.91 53.316c0-.088.011-.174.033-.255-.232-1.34-1.4-2.358-2.805-2.358-1.572 0-2.846 1.274-2.846 2.846s1.274 2.846 2.846 2.846c1.525 0 2.77-1.2 2.843-2.707-.046-.115-.071-.24-.071-.372zm6.591-1h-4.675c-.545-2.08-2.437-3.614-4.688-3.614-2.25 0-4.143 1.535-4.688 3.614h-.696V37.57h6.58l8.167 9.288v5.459zm-46.177 0c.545-2.08 2.437-3.614 4.688-3.614 2.28 0 4.19 1.574 4.708 3.694l6.363-.069V35.203c0-.553.448-1 1-1h7.69c.552 0 1 .447 1 1v17.113h3.981V36.57c0-.553.448-1 1-1h11.409c.49-.836.75-1.789.75-2.76 0-1.24-1.007-2.247-2.247-2.247H16.914c-.527 0-1.035.191-1.431.538-.213.186-.387.411-.513.664l-.11.218c-.236.475-.36.997-.36 1.528v13.887l2.981 4.918h2.842zM41.67 28.563h4.152V28H41.67v.563zm2.101 23.753V36.203h-5.69v16.114h5.69zm-26.83-17.114c0-.552.447-1 1-1h14.696c.552 0 1 .448 1 1v7.007c0 .552-.448 1-1 1H17.942c-.553 0-1-.448-1-1v-7.007zm2 1v5.007h12.696v-5.007H18.94zm34.734 4.044c0-.553.448-1 1-1h2.163c.288 0 .562.124.752.341l4.846 5.539c.259.295.32.714.158 1.072-.162.357-.518.586-.91.586h-7.009c-.552 0-1-.447-1-1v-5.538zm2 1v3.538h3.805l-3.096-3.538h-.709zm17.824 3.01c0-.553.448-1 1-1h9.095c.725 0 1.444.138 2.117.407l.048.02c1.266.506 2.301 1.459 2.91 2.677.182.364.323.745.422 1.14l1.78 7.122 3.658 2.286c.292.182.47.503.47.848v10c0 .552-.448 1-1 1h-5.522c-.253 2.803-2.609 5-5.478 5-2.869 0-5.225-2.197-5.478-5H74.494l-40.5-.244c-.134 2.918-2.542 5.244-5.494 5.244-2.954 0-5.364-2.329-5.494-5.25h-2.512c-.13 2.921-2.54 5.25-5.494 5.25-3.017 0-5.466-2.429-5.5-5.438H6c-.552 0-1-.447-1-1v-16h3v7.507l65.5.424V44.256zM9.851 66.318c.784-2.081 2.793-3.562 5.149-3.562 2.426 0 4.485 1.57 5.216 3.75h3.068c.731-2.18 2.79-3.75 5.216-3.75 2.427 0 4.487 1.572 5.217 3.754l39.783.24v-5.5L7 60.817v5.5h2.851zm67.856.438c.653-2.309 2.775-4 5.293-4 2.518 0 4.64 1.691 5.293 4H93v-3h-3.5c-.552 0-1-.448-1-1v-3c0-.553.448-1 1-1H93v-.446l-3.287-2.054H81c-.552 0-1-.448-1-1v-10h-4.5v21.5h2.207zM82 45.256v9h6.72l-1.569-6.272c-.063-.252-.153-.497-.27-.73-.39-.78-1.053-1.39-1.863-1.714l-.049-.02c-.437-.174-.903-.264-1.374-.264H82zm11 15.5h-2.5v1H93v-1zm-64.5 11c1.933 0 3.5-1.567 3.5-3.5s-1.567-3.5-3.5-3.5-3.5 1.567-3.5 3.5 1.567 3.5 3.5 3.5zm58-3.5c0 1.933-1.567 3.5-3.5 3.5s-3.5-1.567-3.5-3.5 1.567-3.5 3.5-3.5 3.5 1.567 3.5 3.5zM27.857 53.549c0 1.572-1.274 2.846-2.846 2.846s-2.846-1.274-2.846-2.846 1.274-2.846 2.846-2.846 2.846 1.274 2.846 2.846zM18.5 68.256c0 1.933-1.567 3.5-3.5 3.5s-3.5-1.567-3.5-3.5 1.567-3.5 3.5-3.5 3.5 1.567 3.5 3.5z" clip-rule="evenodd"/>
</svg>
