<svg xmlns="http://www.w3.org/2000/svg" width="100" height="100" fill="none" viewBox="0 0 80 80">
    <path fill="currentcolor" fill-rule="evenodd" d="M16.619 23c-.265 0-.518.105-.705.29l-1.2 1.193c-.19.188-.295.443-.295.71 0 .266.106.521.295.709l.215.214-2.74 4.085c-.111.165-.17.36-.17.558v7.155c0 .553.447 1 1 1h2.71C16.284 40.144 17.527 41 18.97 41s2.686-.856 3.242-2.086h13.516C36.284 40.144 37.527 41 38.97 41s2.686-.856 3.242-2.086h4.806c.552 0 1-.447 1-1V34.45c0-1.102-.44-2.16-1.222-2.936-.24-.238-.508-.446-.798-.62l-.545-.325c-.834-.497-1.74-.86-2.686-1.078l-3.682-.844-5.29-4.6c-.776-.675-1.77-1.047-2.8-1.047H16.62zm25.86 13.914h3.54V34.45c0-.57-.228-1.116-.632-1.518-.124-.123-.262-.23-.412-.32l-.546-.325c-.654-.39-1.366-.676-2.108-.846l-3.926-.9c-.16-.037-.309-.113-.433-.22l-5.478-4.765c-.412-.358-.94-.556-1.487-.556H17.03l-.194.193.087.085c.34.338.392.87.125 1.267l-3.03 4.518v5.851h1.443c.268-1.686 1.737-2.975 3.509-2.975 1.772 0 3.24 1.29 3.508 2.975h12.983c.268-1.686 1.737-2.975 3.509-2.975 1.772 0 3.24 1.29 3.508 2.975zM19.82 26.026c-.33 0-.638.162-.825.434l-2.018 2.937c-.273.398-.223.935.12 1.276l.8.795c.187.186.44.29.705.29h3.818c.552 0 1-.447 1-1v-3.732c0-.552-.448-1-1-1h-2.6zm-.664 3.733l1.19-1.733h1.074v1.733h-2.264zm6.464-3.733c-.553 0-1 .448-1 1v3.733c0 .552.447 1 1 1h8.963c.412 0 .782-.253.931-.637.15-.384.049-.82-.255-1.1l-3.122-2.87c-.787-.724-1.818-1.126-2.888-1.126h-3.63zm1 3.733v-1.733h2.63c.568 0 1.115.214 1.534.598l1.233 1.135H26.62zM55 25.5c-.552 0-1 .448-1 1v15H7V34H4v16c0 .552.448 1 1 1h3.522c.253 2.803 2.609 5 5.478 5 2.869 0 5.225-2.197 5.478-5h38.544c.253 2.803 2.609 5 5.478 5 2.869 0 5.225-2.197 5.478-5H74.5c.552 0 1-.448 1-1V40c0-.345-.178-.665-.47-.848l-3.658-2.286-1.78-7.122c-.099-.394-.24-.776-.422-1.14-.609-1.218-1.645-2.17-2.91-2.677l-.048-.02c-.673-.268-1.392-.407-2.117-.407H55zM63.5 45c-2.518 0-4.64 1.692-5.293 4H56V27.5h4.5v10c0 .552.448 1 1 1h8.713l3.287 2.054V41H70c-.552 0-1 .448-1 1v3c0 .552.448 1 1 1h3.5v3h-4.707c-.653-2.308-2.775-4-5.293-4zm-44.207 4H54v-5.5H6V49h2.707c.653-2.308 2.775-4 5.293-4 2.518 0 4.64 1.692 5.293 4zM62.5 36.5v-9h1.595c.47 0 .937.09 1.374.265l.049.02c.81.323 1.473.933 1.864 1.714.116.233.206.477.27.73l1.567 6.271H62.5zM71 43h2.5v1H71v-1zm-53.5 7.5c0 1.933-1.567 3.5-3.5 3.5s-3.5-1.567-3.5-3.5S12.067 47 14 47s3.5 1.567 3.5 3.5zm46 3.5c1.933 0 3.5-1.567 3.5-3.5S65.433 47 63.5 47 60 48.567 60 50.5s1.567 3.5 3.5 3.5zM18.97 39c.87 0 1.553-.697 1.553-1.53 0-.834-.683-1.531-1.552-1.531-.87 0-1.552.697-1.552 1.53 0 .834.683 1.531 1.552 1.531zm21.553-1.53c0 .833-.684 1.53-1.552 1.53-.87 0-1.552-.697-1.552-1.53 0-.834.683-1.531 1.552-1.531s1.552.697 1.552 1.53z" clip-rule="evenodd"/>
</svg>
