<svg xmlns="http://www.w3.org/2000/svg" viewBox="0 0 702.84 244.94"><g id="Слой_2" data-name="Слой 2"><g id="Слой_1-2" data-name="Слой 1"><path class="cls-1" d="M75.18,48.88C69.32,54,63.09,58.67,57.67,64.18c-10.82,11-16.63,24.1-14.21,39.87,1.75,11.39,7.69,20.88,14.58,29.75,14.44,18.62,34.21,30.39,54.36,41.59.86.48,2.85.62,3.1.19A6.08,6.08,0,0,0,116,172c-.84-7.88-1.86-15.74-2.64-23.62-.33-3.37,1.7-4.85,4.9-4.85,10.33,0,20.68-.19,31,.23,1.71.06,4.24,2.51,4.8,4.34,2.19,7.07,4.87,10.26,12.11,10.37,22,.33,44,.33,66,.16a10.09,10.09,0,0,0,10.47-9.46c.69-6.67-1.57-11.47-7.88-12.47a304.7,304.7,0,0,0-33.19-3.15c-18-.86-36-.89-53.95-1.82a61,61,0,0,1-18-3.71c-9.8-3.66-14.31-12.46-15.14-21.92a133.53,133.53,0,0,1,1.11-32.7c2-12.37,13.06-21.36,25.56-22.63,9.77-1,19.61-1.6,29.42-1.66,23.83-.15,47.66-.09,71.48.36a66.12,66.12,0,0,1,18.09,3.14c11.81,3.66,17.34,12.64,19,24.53,2.07,14.85,1.43,15.68-13.41,15.59-7,0-14,0-21,0-3,0-5.13-.84-5.89-4.12C237.34,82.48,233,78.9,227,78.89c-20.64,0-41.29,0-61.9.9-7.74.32-10.38,5-9.48,12.32.64,5.18,4.19,7.51,8.48,8.69a47.51,47.51,0,0,0,11.34,1.52c23.49.58,47,.76,70.47,1.6a74.28,74.28,0,0,1,19.55,3.61c9.68,3.08,15.26,10.77,17.62,20.22A81.43,81.43,0,0,1,284.36,162c-2.39,13.46-12.07,24.08-25.76,25.73a399.3,399.3,0,0,1-43.35,2.41c-20.48.25-41-.31-61.46-.48a46.87,46.87,0,0,0-5.7.79c2.52,1.77,3.66,3.07,5.07,3.49,20.89,6.22,41.6,13.24,62.8,18.2,22.48,5.26,45.36,8.95,68.19,12.58,29.56,4.7,59.43,4.61,89.27,4.15,37.57-.57,74.35-6.21,109.88-18.54,15.75-5.47,30.77-12.79,43.36-24.17,21.08-19.09,24.15-42.59,8.48-66.31C527.25,107.88,517,98.24,505.3,90c-1.09-.78-1.75-2.16-2.61-3.26,1.26-.53,2.5-1.5,3.76-1.51,11.83-.16,23.66-.17,35.49-.19,8.21,0,8.58.37,8.58,8.34q0,43.77,0,87.52c0,8.46.46,9,9.13,9q13.75.06,27.5,0c6.71,0,7.53-.85,7.53-7.45q.06-44.52.07-89c0-7.9.45-8.36,8.59-8.36,14.16,0,28.33.07,42.48-.05,6.15,0,6.86-.89,7-7,.11-4.15,0-8.32.07-12.48,0-3.78,1.81-5,5.05-3,17.17,10.71,32.36,23.4,40.95,42.44,5.5,12.18,5.22,24.26-.63,36.19A89.9,89.9,0,0,1,670,174.21C649.79,189,627.13,199,603.67,207.37c-35.58,12.69-72.22,20.76-109.5,26.68-42.42,6.74-85.07,9.94-127.9,10.74a937.2,937.2,0,0,1-157.91-10.7,622,622,0,0,1-97.24-22.5c-27.64-8.88-54.42-20-78-37.56C20,164.24,9,152.75,2.88,137c-4.22-10.93-3.72-21.42,1-32A78.15,78.15,0,0,1,31.53,72.19C43.67,63.8,56.8,56.86,69.58,49.4c1.56-.91,3.57-1.07,5.37-1.57Z"/><path class="cls-1" d="M413.9,46c-42-14.89-85.72-22.37-129.95-26.47-44.43-4.12-88.93-3.84-133.16,4.36l-.19-1.85c6.13-1.52,12.22-3.24,18.4-4.52C208.53,9.31,248.43,3.58,288.78,2c31-1.24,62-2.44,92.9-1.77C409.62.8,437.63,3,465.39,6.27a698.44,698.44,0,0,1,87.49,15.65A529.15,529.15,0,0,1,622.2,44.26a68.43,68.43,0,0,1,6.4,3.35l-.23,1.4a54,54,0,0,1-5.93.64q-60.75,0-121.49,0c-8.09,0-8.18.11-8.18,8,0,6,.08,12,.07,18,0,4.15-1.2,4.85-4.75,2.87C483,75.7,478,72.75,472.8,70.07c-1.3-.67-3.06-.47-4.6-.67a21.31,21.31,0,0,0-.5,4.23c.36,4.48,1.1,8.92,1.34,13.4.21,3.81-1.76,5.8-5.79,5.76-9.83-.09-19.66-.05-29.49-.05-3,0-5.22-.83-5.69-4.25-.92-6.77-6-9.47-11.68-9.55-20-.27-40-.33-59.95.45-9.67.38-13.55,6.27-11.14,14.07,1.58,5.09,5.58,7.46,10.48,8,6.78.7,13.62,1,20.44,1.19,19.48.47,39,.53,58.46,1.29a81.82,81.82,0,0,1,19.62,3.38c8.52,2.5,14,8.76,17,17.08a67.73,67.73,0,0,1,2.35,37.92c-3.4,15.22-13,23.84-28.44,26.08A130.49,130.49,0,0,1,425.27,190q-46.2-.49-92.4-1.63A48.75,48.75,0,0,1,317.81,185c-6.54-2.39-11.74-7.12-13.23-14-1.65-7.55-2-15.39-2.66-23.13-.25-2.77,1.44-4.29,4.32-4.29,10.83,0,21.67-.22,32.49.1,1.61.05,4.07,2.27,4.56,3.95,2.24,7.62,4.79,10.33,12.77,10.9,6.3.46,12.65.31,19,.31,15.16,0,30.33.16,45.49-.2,8.43-.2,13-6.22,11.45-14-.77-3.91-2.76-7.11-6.78-7.8-7.51-1.3-15.08-2.66-22.68-3-22.13-1-44.31-1.09-66.43-2.26a56.47,56.47,0,0,1-20.18-4.83c-9.2-4.24-12.6-13.45-13.09-22.78a145,145,0,0,1,1.53-30.74c2-12.08,12.34-21,24.6-22.28,11.24-1.14,22.58-1.62,33.89-1.79,15-.22,30,.19,45,.22a31.93,31.93,0,0,0,5.74-1C413.67,47.59,413.78,46.81,413.9,46Z"/></g></g></svg>