<svg xmlns="http://www.w3.org/2000/svg" width="80" height="80"><g fill="currentcolor"><path d="M62.013 45.398V26.733a3.941 3.941 0 0 0-3.938-3.935h-5.163v-1.486a1.312 1.312 0 0 0-2.625 0v1.486h-8.575v-1.486a1.311 1.311 0 1 0-2.625 0v1.486h-8.575v-1.486a1.311 1.311 0 1 0-2.625 0v1.486h-5.95A3.942 3.942 0 0 0 18 26.733v24.135a3.94 3.94 0 0 0 3.938 3.935h20.38c1.876 3.337 5.45 5.597 9.544 5.597 6.031 0 10.938-4.904 10.938-10.93 0-1.44-.28-2.813-.787-4.072zm-8.838-4.132a8.331 8.331 0 0 1 6.896 6.892h-6.896v-6.892zM21.938 52.18a1.314 1.314 0 0 1-1.313-1.312V26.733c0-.723.589-1.311 1.313-1.311h5.95v1.574a1.312 1.312 0 0 0 2.625 0v-1.574h8.574v1.574a1.312 1.312 0 0 0 2.626 0v-1.574h8.575v1.574a1.312 1.312 0 0 0 2.625 0v-1.574h5.162c.724 0 1.313.588 1.313 1.311v14.811a10.904 10.904 0 0 0-7.526-3.005c-6.03 0-10.937 4.903-10.937 10.93 0 .936.118 1.844.34 2.711H21.938zm29.924 5.597c-4.583 0-8.312-3.727-8.312-8.308 0-4.134 3.038-7.572 7-8.203v8.203c0 .725.588 1.312 1.313 1.312h8.208c-.631 3.96-4.072 6.996-8.209 6.996z"/><path d="M27.067 34h-2.134c-.736 0-1.333.582-1.333 1.3 0 .718.597 1.3 1.333 1.3h2.134c.736 0 1.333-.582 1.333-1.3 0-.718-.597-1.3-1.333-1.3zm7.8 0h-2.134c-.736 0-1.333.582-1.333 1.3 0 .718.597 1.3 1.333 1.3h2.134c.736 0 1.333-.582 1.333-1.3 0-.718-.597-1.3-1.333-1.3zm0 5.6h-2.134c-.736 0-1.333.582-1.333 1.3 0 .718.597 1.3 1.333 1.3h2.134c.736 0 1.333-.582 1.333-1.3 0-.718-.597-1.3-1.333-1.3zm-7.8 0h-2.134c-.736 0-1.333.582-1.333 1.3 0 .718.597 1.3 1.333 1.3h2.134c.736 0 1.333-.582 1.333-1.3 0-.718-.597-1.3-1.333-1.3zm0 5.6h-2.134c-.736 0-1.333.582-1.333 1.3 0 .718.597 1.3 1.333 1.3h2.134c.736 0 1.333-.582 1.333-1.3 0-.718-.597-1.3-1.333-1.3zm7.8 0h-2.134c-.736 0-1.333.582-1.333 1.3 0 .718.597 1.3 1.333 1.3h2.134c.736 0 1.333-.582 1.333-1.3 0-.718-.597-1.3-1.333-1.3z"/></g></svg>