<svg xmlns="http://www.w3.org/2000/svg" width="80" height="80"><path fill="currentcolor" fill-rule="evenodd" d="M55.025 24c.608 0 1.102.493 1.102 1.101v1.455h9.168a4.543 4.543 0 0 1 4.44 3.52l1.822 7.788 3.19 1.853c.34.197.55.56.55.952v10.689c0 .608-.494 1.101-1.102 1.101h-5.632c-.512 2.516-2.74 4.415-5.405 4.415s-4.894-1.9-5.406-4.415h-38.3a5.524 5.524 0 0 1-5.405 4.415 5.526 5.526 0 0 1-5.405-4.415h-3.54A1.102 1.102 0 0 1 4 51.357V25.101C4 24.493 4.493 24 5.101 24zM14.047 48.044c-1.827 0-3.313 1.487-3.313 3.314s1.486 3.313 3.313 3.313a3.316 3.316 0 0 0 3.313-3.313 3.317 3.317 0 0 0-3.313-3.314zm49.11 0a3.317 3.317 0 0 0-3.304 3.093 1.14 1.14 0 0 1 0 .441 3.317 3.317 0 0 0 3.305 3.093 3.316 3.316 0 0 0 3.313-3.313 3.317 3.317 0 0 0-3.313-3.314zm-9.233-3.485H6.203v5.697h2.439c.512-2.516 2.74-4.415 5.405-4.415s4.894 1.9 5.406 4.415h34.47V48.51H27.989a1.101 1.101 0 0 1 0-2.203h25.936V44.56zm6.39-15.8h-4.187v21.497h1.625a5.526 5.526 0 0 1 5.406-4.415c2.664 0 4.893 1.9 5.405 4.415h4.53v-3.025h-3.197a1.101 1.101 0 0 1-1.101-1.101v-3.37a1.1 1.1 0 0 1 1.101-1.1h3.197v-.356l-2.797-1.624h-8.881a1.102 1.102 0 0 1-1.102-1.102V28.76zM24.27 46.306a1.101 1.101 0 0 1 0 2.203h-.93a1.101 1.101 0 0 1 0-2.203zm48.822-2.444h-2.096v1.166h2.096v-1.166zm-19.17-17.659H6.204v16.153h47.72V26.203zm11.372 2.556h-2.778v8.718h6.687l-1.615-6.899a2.347 2.347 0 0 0-2.294-1.819z"/></svg>