<svg xmlns="http://www.w3.org/2000/svg" width="100" height="100" viewBox="-266 357 79 79" style="enable-background:new -266 357 79 79" xml:space="preserve"><path d="m-201.8 405.3-4.8-6.4c-.1-.2-.3-.3-.5-.4l-5.6-2.3v-11.4h.4c.7 0 1.2-.5 1.2-1.2v-1.2c0-2.4-2-4.4-4.4-4.4h-28.8c-2.4 0-4.4 2-4.4 4.4v1.2c0 .7.5 1.2 1.2 1.2h.4v17.4l-4.3 2.8c-.3.2-.5.6-.5 1v4.8c0 .7.5 1.2 1.2 1.2h3.8c.5 1.9 2.3 3.2 4.2 3.2s3.7-1.3 4.2-3.2h25.1c.5 1.9 2.3 3.2 4.2 3.2s3.7-1.3 4.2-3.2h2.2c.7 0 1.2-.5 1.2-1.2V406c0-.3 0-.5-.2-.7zm-42.6-24.9h28.8c1.1 0 2 .9 2 2h-32.8c0-1.1.9-2 2-2zm29.2 4.4v10.5c-.3-.1-.6-.1-.9.1-.3.1-.5.4-.6.7l-.5 1.6-4.9-4.4.6-.6c1.1-1.2-.6-2.8-1.7-1.7l-3.1 3.2c-1.1 1.2.6 2.8 1.7 1.7l.9-.9 5.8 5.2-1.6 4.7h-5.9v-3.2c0-2.4-2-4.4-4.4-4.4h-3.6v-.8c0-2-1.6-3.6-3.6-3.6h-2.4c-.7 0-1.2.5-1.2 1.2v3.2h-4v-12.4h29.4zm-23.2 16.8v-6.4h1.2c.7 0 1.2.5 1.2 1.2v2c0 .7.5 1.2 1.2 1.2h4.8c1.1 0 2 .9 2 2h-10.4zm-6.4 0v-2h4v2h-4zm2 11.2c-1.1 0-2-.9-2-2s.9-2 2-2 2 .9 2 2-.9 2-2 2zm33.6 0c-1.1 0-2-.9-2-2s.9-2 2-2 2 .9 2 2-.9 2-2 2zm5.2-3.2h-1c-.5-1.9-2.3-3.2-4.2-3.2s-3.7 1.3-4.2 3.2h-25.1c-.5-1.9-2.3-3.2-4.2-3.2s-3.7 1.3-4.2 3.2h-2.6v-3l4-2.6h17.6v2c0 .7.5 1.2 1.2 1.2h8c.5 0 1-.3 1.1-.8l2.8-8.4 6.5 2.6 4.4 5.8-.1 3.2z" style="fill:currentcolor"/></svg>