<svg width="100" height="100" viewBox="0 0 80 80" xmlns="http://www.w3.org/2000/svg"><path d="M40.369 44.136h7.14a4.185 4.185 0 0 0 4.182-4.181V29.929h6.24c2.435 0 4.802.462 7.035 1.374a1.139 1.139 0 0 0 .86-2.106 20.692 20.692 0 0 0-5.538-1.412v-.836a3.933 3.933 0 0 0-3.93-3.929c-.124 0-.248.02-.367.062l-13.376 4.572H33.29l3.037-4.918a1.138 1.138 0 0 0-1.935-1.196l-3.777 6.114H12.649a3.917 3.917 0 0 0-3.643 2.49h-1.02a2.726 2.726 0 0 0-2.722 2.722v1.365a2.725 2.725 0 0 0 2.723 2.722h.75v.737C4.418 38.005 1 41.617 1 46.014v3.482c0 1.046.85 1.897 1.896 1.897h1.518c.494 4.069 3.967 7.232 8.167 7.232 4.2 0 7.672-3.163 8.167-7.232h23.943a1.138 1.138 0 0 0 0-2.275h-8.21c-.781-.536-3.045-2.09-5.57-3.838a8.04 8.04 0 0 0 2.572-3.348 1.138 1.138 0 0 0-2.106-.863 5.764 5.764 0 0 1-2.47 2.816 479.072 479.072 0 0 1-3.323-2.334c-2.26-1.603-3.819-2.572-5.291-3.141a5.774 5.774 0 0 1 5.746-5.296c2.5 0 4.702 1.595 5.48 3.968a1.138 1.138 0 0 0 2.163-.71 8.028 8.028 0 0 0-7.643-5.533c-4.077 0-7.453 3.05-7.972 6.987-.792-.118-1.644-.16-2.638-.16h-4.417v-6.1c0-.903.734-1.637 1.637-1.637h23.539v10.026a4.185 4.185 0 0 0 4.18 4.18Zm16.156-18.832c.834.083 1.488.79 1.488 1.645v.705H49.65l6.873-2.35Zm-7.114 14.65V29.93H38.468v10.026c0 1.049.853 1.901 1.9 1.901h7.142a1.903 1.903 0 0 0 1.9-1.901Zm21.172-8.036-.001-.001-.116-.087a1.138 1.138 0 1 0-1.366 1.82l.102.077c4.669 3.557 7.347 8.957 7.347 14.818v.572h-.424v-.296c0-6.151-5.004-11.156-11.156-11.156h-2.647c-6.151 0-11.156 5.005-11.156 11.156v.296h-1.242a1.137 1.137 0 1 0 0 2.276h5.554c.494 4.068 3.968 7.232 8.167 7.232 4.2 0 7.673-3.164 8.167-7.232h5.116c1.045 0 1.896-.85 1.896-1.897v-.95c0-6.577-3.004-12.637-8.241-16.628ZM42.739 34.5h-1.611a1.14 1.14 0 1 1 0-2.28h1.611a1.14 1.14 0 1 1 0 2.28ZM7.54 34.231c0 .247.2.447.447.447h.75V32.42h-.75c-.247 0-.447.2-.447.447v1.365Zm16.727 9.176c-4.405-3.125-5.685-3.466-8.838-3.466H9.35a6.08 6.08 0 0 0-6.073 6.073v3.104H4.45c.616-3.934 4.027-6.953 8.131-6.953s7.515 3.02 8.13 6.953h11.752a807.942 807.942 0 0 1-8.196-5.711Zm49.583 5.71h-2.074c-.616-3.933-4.027-6.952-8.13-6.952-4.104 0-7.516 3.02-8.13 6.953H53.44v-.297c0-4.896 3.984-8.88 8.88-8.88h2.648c4.897 0 8.88 3.984 8.88 8.88v.297ZM12.58 56.35a5.96 5.96 0 0 1-5.955-5.954 5.961 5.961 0 0 1 5.955-5.954 5.96 5.96 0 0 1 5.954 5.954 5.96 5.96 0 0 1-5.954 5.954Zm45.11-5.954a5.96 5.96 0 0 0 5.954 5.954 5.96 5.96 0 0 0 5.955-5.954 5.96 5.96 0 0 0-5.955-5.954 5.961 5.961 0 0 0-5.954 5.954Zm-43.355 0a1.755 1.755 0 1 1-3.51 0 1.755 1.755 0 0 1 3.51 0Zm49.31 1.755a1.755 1.755 0 1 0 0-3.51 1.755 1.755 0 0 0 0 3.51Z" fill="currentcolor" fill-rule="evenodd"/></svg>