<svg width="100" height="100" viewBox="0 0 80 80" xmlns="http://www.w3.org/2000/svg"><path d="m71.557 36.308 3.19 1.853c.34.197.549.56.55.952v10.689c0 .608-.494 1.101-1.102 1.101h-5.632a5.526 5.526 0 0 1-5.405 4.415 5.526 5.526 0 0 1-5.406-4.415h-38.3a5.526 5.526 0 0 1-5.405 4.415 5.526 5.526 0 0 1-5.405-4.415h-3.54A1.101 1.101 0 0 1 4 49.802c3.312-.55 1.656-2.52 0-4.49-1.462-1.74-2.925-3.48-.966-4.241.514-.2 1.407-.322 1.955-.39 10.01-1.227 41.287-.126 47.762.102.704.025 1.115.04 1.173.04.175-1.409.092-5.221.014-8.787-.04-1.785-.077-3.507-.08-4.836-.004-1.216.131-3.193.454-4.366L56.127 25h9.168a4.541 4.541 0 0 1 4.44 3.52l1.822 7.788Zm-2.763 4.897c0-.609.494-1.102 1.102-1.102h3.197v-.355l-2.797-1.624h-8.881a1.101 1.101 0 0 1-1.102-1.102v-9.819h-4.186V48.7h1.625a5.525 5.525 0 0 1 5.406-4.415c2.664 0 4.893 1.9 5.405 4.415h4.53v-3.025h-3.197a1.101 1.101 0 0 1-1.102-1.101v-3.37Zm-3.499-14.002c1.1 0 2.044.748 2.294 1.82l1.615 6.898h-6.687v-8.718h2.778Zm7.798 16.27h-2.096v-1.167h2.096v1.166ZM27.988 44.75h25.936v-1.747H6.203V48.7h2.439a5.526 5.526 0 0 1 5.405-4.415c2.665 0 4.894 1.9 5.406 4.415h34.47v-1.747H27.989a1.102 1.102 0 0 1 0-2.203Zm-13.94 8.365a3.317 3.317 0 0 1-3.314-3.313 3.317 3.317 0 0 1 3.313-3.313 3.317 3.317 0 0 1 3.313 3.313 3.317 3.317 0 0 1-3.313 3.313Zm45.805-3.093a3.317 3.317 0 0 0 3.305 3.093 3.317 3.317 0 0 0 3.313-3.313 3.317 3.317 0 0 0-3.313-3.313 3.317 3.317 0 0 0-3.305 3.092 1.107 1.107 0 0 1 0 .441Z" fill="currentcolor" fill-rule="evenodd"/></svg>