<svg width="100" height="100" viewBox="0 0 80 80" xmlns="http://www.w3.org/2000/svg"><path d="m47.668 33.734-5.726-9.163a1.214 1.214 0 0 0-1.15-.565H21.455c-5.363 0-9.726 4.363-9.726 9.726v.002h-1.218C5.82 33.734 2 37.554 2 42.246v10.946a1.244 1.244 0 0 0 .008.14 1.214 1.214 0 0 0 1.208 1.076h2.85c1.004 2.83 3.707 4.862 6.878 4.862 3.17 0 5.874-2.032 6.879-4.862h44.61c1.004 2.83 3.708 4.862 6.879 4.862a7.303 7.303 0 0 0 7.296-7.296 7.267 7.267 0 0 0-1.862-4.864h1.862c.673 0 1.216-.543 1.216-1.216v-3.646a1.215 1.215 0 0 0-1.216-1.216h-1.216v-3.648c0-.672-.543-1.216-1.216-1.216h-2.432a3.63 3.63 0 0 0-1.216.209v-3.859a1.215 1.215 0 1 0-2.432 0v1.216H47.668Zm-20.104 0v-7.296h-6.108a7.3 7.3 0 0 0-7.294 7.294v.002h13.402Zm12.677-7.296H29.996v7.296H44.8l-4.56-7.296ZM4.432 42.246a6.087 6.087 0 0 1 6.08-6.08h1.218v4.931a10.94 10.94 0 0 0-7.298 4.008v-2.859Zm9.73-6.08h14.541a1.302 1.302 0 0 0 .154 0h41.239v4.931c-5.465.607-9.728 5.253-9.728 10.877v.002H23.89v-.002c0-5.624-4.263-10.27-9.728-10.877v-4.931Zm37.31 7.233a1.218 1.218 0 0 0 1.538-.769l1.216-3.646a1.216 1.216 0 0 0-2.307-.769l-1.216 3.646a1.217 1.217 0 0 0 .769 1.538Zm4.032.063a1.217 1.217 0 0 1-1.153-1.601l1.216-3.646a1.216 1.216 0 0 1 2.307.77l-1.216 3.645c-.17.51-.645.832-1.154.832Zm3.264-.063a1.218 1.218 0 0 0 1.538-.769l1.216-3.646a1.216 1.216 0 0 0-2.307-.769l-1.216 3.646a1.217 1.217 0 0 0 .769 1.538ZM31.184 41.03h2.432a1.215 1.215 0 1 0 0-2.432h-2.432a1.215 1.215 0 1 0 0 2.432Zm42.56-2.43h1.216v2.432h-2.432v-1.216c0-.67.545-1.216 1.216-1.216ZM4.434 51.976h1.214v-.002a7.303 7.303 0 0 1 7.296-7.296 7.303 7.303 0 0 1 7.296 7.296v.002h1.216v-.002c0-.024 0-.048.002-.072-.039-4.66-3.843-8.44-8.512-8.44-4.692 0-8.512 3.82-8.512 8.512v.002Zm59.582 0H62.8v-.002c0-4.669 3.78-8.473 8.44-8.512.024.002.048.002.072.002h6.08v1.214h-6.08a7.303 7.303 0 0 0-7.296 7.296v.002ZM8.189 53.003a4.874 4.874 0 0 1-.11-1.03 4.869 4.869 0 0 1 4.865-4.863 4.869 4.869 0 0 1 4.864 4.864 4.869 4.869 0 0 1-4.864 4.864 4.872 4.872 0 0 1-4.755-3.835Zm63.123-5.893a4.869 4.869 0 0 0-4.76 5.867 4.872 4.872 0 0 0 4.76 3.861 4.869 4.869 0 0 0 4.864-4.864 4.869 4.869 0 0 0-4.864-4.864Zm-58.368 8.512a3.653 3.653 0 0 1-3.648-3.648 3.653 3.653 0 0 1 3.648-3.648 3.653 3.653 0 0 1 3.648 3.648 3.653 3.653 0 0 1-3.648 3.648Zm58.368 0a3.653 3.653 0 0 1-3.648-3.648 3.653 3.653 0 0 1 3.648-3.648 3.653 3.653 0 0 1 3.648 3.648 3.653 3.653 0 0 1-3.648 3.648Zm-58.368-4.864a1.217 1.217 0 1 0 .002 2.434 1.217 1.217 0 0 0-.002-2.434Zm58.368 0a1.217 1.217 0 1 0 .002 2.434 1.217 1.217 0 0 0-.002-2.434Z" fill="currentcolor" fill-rule="evenodd"/></svg>