<svg width="100" height="100" viewBox="0 0 80 80" xmlns="http://www.w3.org/2000/svg"><path d="M34.778 13.838C34.778 6.205 28.566 0 20.931 0S7.084 6.205 7.084 13.838v.294c0 2.508.684 4.972 1.976 7.122l2.933 4.884a8.098 8.098 0 0 1-.86-.105l-.197-.036a2.357 2.357 0 0 0-2.008.61l-7.758 7.31a2.368 2.368 0 0 0-.075 3.371l.09.09c.555.57.864 1.311.864 2.079a15.01 15.01 0 0 1-1.768 7.046c-.838 1.575.301 3.477 2.083 3.477h38.179c.379 0 .753-.092 1.09-.267a33.102 33.102 0 0 1 4.886-2.069 2.64 2.64 0 0 0 1.763-1.862 2.641 2.641 0 0 0-.1-1.734l-.027-.062.568-.123c.087.341.24.656.441.933a2.63 2.63 0 0 0 2.195 1.122c.116 0 .233-.007.35-.022a4.035 4.035 0 0 0 2.97-1.941 3.93 3.93 0 0 0 .224-3.594l-2.22-5.072a3.34 3.34 0 0 0-3.065-1.992c-.55 0-1.09.135-1.574.392l-.234-.453a3.337 3.337 0 0 0-2.97-1.795h-1.353a3.344 3.344 0 0 0-2.763 1.45l-3.39 4.95a2.93 2.93 0 0 0-.079-.248 2.706 2.706 0 0 0-1.618-1.623l-1.854-.695a.47.47 0 0 1-.291-.273.325.325 0 0 1 .035-.291.52.52 0 0 1 .277-.208l5.176-1.73a8.616 8.616 0 0 0 3.233-1.955c.992-.956 1.061-2.175.639-3.157a2.825 2.825 0 0 0-.7-.983 2.817 2.817 0 0 0-1.916-.74l-.152.005-.787.053-.12.01a6.36 6.36 0 0 0-1.408.283l-2.803.9-5.59-.23 3.426-5.706a13.813 13.813 0 0 0 1.976-7.121v-.294Zm-25.334 0c0-6.325 5.154-11.473 11.487-11.473s11.487 5.148 11.487 11.473v.294c0 2.079-.565 4.12-1.638 5.902l-9.01 15.002a.886.886 0 0 1-.44.364 2.259 2.259 0 0 1-1.023-.126.846.846 0 0 1-.215-.238l-9.01-15.002a11.463 11.463 0 0 1-1.638-5.902v-.294Zm20.299.054c0-4.868-3.953-8.83-8.812-8.83s-8.812 3.962-8.812 8.83c0 4.869 3.953 8.83 8.812 8.83s8.812-3.961 8.812-8.83Zm-15.106 0c0-3.477 2.824-6.306 6.294-6.306 3.47 0 6.294 2.829 6.294 6.306S24.401 20.2 20.931 20.2c-3.47 0-6.294-2.83-6.294-6.307Zm38.237 2.82v2.523h-.038l-.025.002c-.11.011-.194.07-.46.379l-.212.247-.077.089c-.452.507-1.157 1.149-2.338 1.149-1.277 0-1.997-.75-2.442-1.27l-.156-.182c-.31-.363-.387-.408-.514-.413h-.05c-.146 0-.212.03-.568.448l-.15.177c-.447.52-1.163 1.24-2.415 1.24-1.276 0-1.995-.75-2.44-1.27l-.184-.215c-.286-.332-.361-.375-.483-.38h-.037v-2.524c1.277 0 1.995.75 2.44 1.27l.184.217.056.064c.24.274.314.311.428.316h.062l.025-.001c.115-.008.196-.06.471-.38l.184-.216.075-.087c.45-.513 1.158-1.183 2.365-1.183 1.322 0 2.047.805 2.487 1.323l.108.128.087.1c.266.3.329.315.467.315h.037l.024-.002c.118-.011.206-.077.52-.446l.128-.15.077-.09c.442-.5 1.132-1.15 2.292-1.177h.072Zm-17.7 10.486.004.003h.055l.054.002-.114-.005Zm5.062 1.105-.742.05-.136.01a4.075 4.075 0 0 0-.868.178l-3.096.995a.619.619 0 0 1-.218.03l-7.188-.298-.274.456q-.385.62-4.105 6.558a3.143 3.143 0 0 1-5.338-.011l-4.833-7.791-.132.01a10.32 10.32 0 0 1-2.761-.161l-7.758 7.31a5.35 5.35 0 0 1 1.622 3.818c0 2.84-.705 5.638-2.045 8.158h38.179a35.452 35.452 0 0 1 5.235-2.216.34.34 0 0 0 .226-.235l.003-.01a.325.325 0 0 0-.08-.3l-.563-.61a1.313 1.313 0 0 1-.289-1.323 1.382 1.382 0 0 1 1.035-.911l3.288-.713a1.45 1.45 0 0 1 1.47.551c.267.37.328.825.166 1.248a.319.319 0 0 0 .032.299l.016.021a.349.349 0 0 0 .328.134c.525-.068.977-.36 1.24-.804a1.56 1.56 0 0 0 .09-1.437l-2.219-5.07a.98.98 0 0 0-.903-.577c-.16 0-.317.039-.46.112l-.102.057a2.252 2.252 0 0 1-1.065.268 2.19 2.19 0 0 1-1.963-1.168l-.313-.604a.978.978 0 0 0-.875-.521h-1.353a.986.986 0 0 0-.816.423l-4.218 6.16c-.316.46-.857.724-1.432.696l-.685-.034a1.612 1.612 0 0 1-1.33-.804 1.498 1.498 0 0 1 .008-1.513.37.37 0 0 0 .028-.32.387.387 0 0 0-.232-.23l-1.854-.694a2.829 2.829 0 0 1-1.688-1.695 2.693 2.693 0 0 1 .256-2.336c.349-.56.892-.985 1.532-1.199l5.177-1.731a6.255 6.255 0 0 0 2.344-1.416.442.442 0 0 0 .116-.493l-.009-.022-.009-.02a.476.476 0 0 0-.439-.275ZM62 50.611v2.522h-.037l-.025.002c-.11.011-.194.07-.461.379l-.212.248-.077.088c-.452.507-1.157 1.149-2.338 1.149-1.277 0-1.997-.75-2.442-1.27l-.155-.182c-.31-.363-.387-.408-.515-.413h-.05c-.146 0-.212.03-.568.448l-.15.177c-.447.52-1.162 1.241-2.415 1.241-1.276 0-1.995-.75-2.44-1.27l-.183-.216c-.286-.333-.362-.375-.483-.38h-.037V50.61c1.276 0 1.995.749 2.44 1.27l.183.216.057.064c.24.274.313.311.427.316h.063l.025-.001c.115-.008.195-.06.47-.38l.184-.215.075-.088c.45-.513 1.158-1.182 2.365-1.182 1.323 0 2.048.804 2.488 1.323l.108.127.086.1c.266.301.329.315.467.315h.038l.024-.002c.118-.011.206-.076.52-.446l.128-.15.077-.09c.441-.5 1.131-1.15 2.291-1.177H62Z" fill="currentcolor" fill-rule="evenodd"/></svg>