<svg width="100" height="100" viewBox="0 0 80 80" xmlns="http://www.w3.org/2000/svg"><path d="M65.433 35.914v8.658a10.08 10.08 0 1 1-15.07 7.708h-12.48a14.104 14.104 0 1 1-23.858-12.882v-3.112a3.044 3.044 0 0 1 1.467-2.594l3.584-2.149a3.024 3.024 0 0 1 1.555-.431h5.49v-8.064h-2.016a1.007 1.007 0 0 1-1.008-1.008v-3.024A2.019 2.019 0 0 1 25.113 17h12.799c.398 0 .787.118 1.118.339l2.321 1.547c.561.374.898 1.003.898 1.677v1.477a1.007 1.007 0 0 1-1.008 1.008h-.59l3.023 3.024c.377.379.59.891.59 1.425v3.615h2.017v-7.056c0-.267.106-.524.295-.713l2.016-2.016 1.425 1.426-1.72 1.72v6.639h4.905c.179 0 .357.024.53.07l10.214 2.787a2.021 2.021 0 0 1 1.487 1.945ZM37.912 19.016h-12.8v2.016h15.12v-.469l-2.32-1.547Zm-9.775 4.032h9.662l4.45 4.45v.59H40.65a2.031 2.031 0 0 0-1.425.59l-.504.505-1.095-1.095 1.304-1.303-1.426-1.426-4.032 4.032 1.425 1.426 1.304-1.304 1.094 1.095-.138.139a2.024 2.024 0 0 0-.106 2.737l4.015 4.684h-2.85v2.016h4.033V42.2h-5.942c-.034-.06-.071-.117-.106-.175V37.23a3.017 3.017 0 0 0-1.347-2.516l-4.642-3.095a3.012 3.012 0 0 0-1.677-.508h-.398v-8.064Zm12.513 7.056h1.599v6.347l-3.667-4.279 2.068-2.068Zm-20.537 3.168L16.53 35.42a1.015 1.015 0 0 0-.49.865v1.406a14.055 14.055 0 0 1 18.145 1.706V37.23c0-.337-.168-.652-.45-.839l-4.641-3.095a1 1 0 0 0-.56-.169h-7.903a1 1 0 0 0-.518.144Zm26.168-.144v3.024h-2.016v-3.024h2.016Zm17.136 2.786-10.215-2.786h-4.905v3.07c.381.081.731.27 1.008.545l1.425 1.425c.377.379.59.891.59 1.425v1.599h1.6a2.03 2.03 0 0 1 1.425.59l2.194 2.195a10.049 10.049 0 0 1 6.878-.304V42.2H60.81a2.031 2.031 0 0 1-1.425-.59l-1.426-1.426a2.03 2.03 0 0 1-.59-1.425v-.591a2.019 2.019 0 0 1 2.016-2.016h4.032v-.238ZM24.105 61.352A12.096 12.096 0 1 1 36.2 49.256c-.008 6.677-5.419 12.089-12.096 12.096Zm23.774-23.184h-3.614v8.064h5.04v-6.639l-1.426-1.425Zm15.538 2.016H60.81l-1.425-1.425-.002-.591h4.034v2.016Zm-39.312 1.008a8.064 8.064 0 1 0 8.064 8.064 8.073 8.073 0 0 0-8.064-8.064Zm0 14.112a6.048 6.048 0 1 1 6.048-6.048 6.055 6.055 0 0 1-6.048 6.048Zm14.112-6.048c0 .34-.027.674-.051 1.008h12.612a10.12 10.12 0 0 1 3.916-5.282l-1.775-1.774h-1.598v3.024a2.019 2.019 0 0 1-2.016 2.016h-5.04a2.019 2.019 0 0 1-2.016-2.016v-2.016H37.27c.623 1.607.944 3.316.947 5.04Zm22.176 12.096a8.064 8.064 0 1 1 8.064-8.064 8.073 8.073 0 0 1-8.064 8.064ZM24.105 50.264a1.008 1.008 0 1 0 0-2.016 1.008 1.008 0 0 0 0 2.016Zm31.248 3.024a5.04 5.04 0 1 1 10.08 0 5.04 5.04 0 0 1-10.08 0Zm2.016 0a3.024 3.024 0 1 0 6.048 0 3.024 3.024 0 0 0-6.048 0Zm4.032 0a1.008 1.008 0 1 1-2.016 0 1.008 1.008 0 0 1 2.016 0Z" fill="currentcolor" fill-rule="evenodd"/></svg>