<svg xmlns="http://www.w3.org/2000/svg" width="100" height="100" viewBox="0 0 80 80"><g fill="currentcolor"><path d="M74.405 44.59c-.295-.5-.94-.668-1.443-.374-.503.294-.67.938-.375 1.438a9.424 9.424 0 0 1 1.303 4.783c0 5.217-4.26 9.461-9.495 9.461-5.236 0-9.496-4.244-9.496-9.46a9.43 9.43 0 0 1 .813-3.833l2.803 2.655c-.078.387-.118.78-.118 1.177 0 3.295 2.69 5.976 5.998 5.976 3.307 0 5.997-2.68 5.997-5.976 0-3.295-2.69-5.975-5.997-5.975-.5 0-.994.063-1.475.184l-2.802-2.655a9.512 9.512 0 0 1 10.433 1.247 1.058 1.058 0 0 0 1.487-.118 1.047 1.047 0 0 0-.118-1.481 11.628 11.628 0 0 0-7.526-2.764c-2.085 0-4.101.55-5.881 1.595l-1.298-1.23a13.173 13.173 0 0 1 6.51-1.712c.7 0 1.406.056 2.098.165.308.05.621-.04.856-.243l3.329-2.872a4.217 4.217 0 0 0 1.18-1.665c.89-2.276.933-6.574-.762-8.503-4.65-5.291-11.549-7.896-19.427-7.335-1.934.138-3.05 2.267-2.053 3.936l.463.777h-2.2c-.583 0-1.055.47-1.055 1.05 0 .58.472 1.051 1.054 1.051h3.4c.49 1.073.722 2.24.68 3.412a11.615 11.615 0 0 0-7.738-2.92 11.634 11.634 0 0 0-9.533 4.919h-7.589a2.64 2.64 0 0 1-1.647-.578l-7.717-6.177a1.055 1.055 0 0 0-.66-.232h-6.31a3.174 3.174 0 0 0-3.175 3.163 3.17 3.17 0 0 0 1.323 2.57l2.27 1.624a1.057 1.057 0 0 0 1.472-.24 1.049 1.049 0 0 0-.242-1.467l-2.27-1.624a1.066 1.066 0 0 1-.444-.863c0-.585.478-1.061 1.066-1.061h5.938l7.428 5.946a4.774 4.774 0 0 0 2.968 1.04h7.983l6.83 2.601 3.76 1.432c-.197.101-2.731 2.315-6.85 2.315h-2.316a6.517 6.517 0 0 0-5.704 3.374l-1.743-1.248-13.786-9.865a1.057 1.057 0 0 0-1.472.24 1.05 1.05 0 0 0 .242 1.467L25.87 40.66l-2.273 1.393a11.657 11.657 0 0 0-7.992-3.18C9.206 38.874 4 44.061 4 50.437S9.206 62 15.605 62c6.4 0 11.605-5.187 11.605-11.563 0-.98-.125-1.95-.371-2.894l2.497-1.53v7.878c0 3.003 2.452 5.447 5.466 5.447h5.082v.56h-6.88c-.584 0-1.056.47-1.056 1.051 0 .58.472 1.051 1.055 1.051h7.936c.582 0 1.054-.47 1.054-1.05v-1.612h9.677c.385 0 .74-.209.925-.545a1.048 1.048 0 0 0-.034-1.069 13.086 13.086 0 0 1-2.044-7.035c0-2.594.757-5.014 2.062-7.054l1.53 1.45a11.5 11.5 0 0 0-1.32 5.352C52.79 56.813 57.997 62 64.396 62S76 56.813 76 50.437c0-2.056-.551-4.078-1.595-5.847zm-6.122 5.847c0 2.136-1.744 3.874-3.888 3.874a3.891 3.891 0 0 1-3.807-3.087l1.605 1.52a3.183 3.183 0 0 0 2.202.877c.871 0 1.715-.36 2.316-.99.588-.616.9-1.424.88-2.274a3.16 3.16 0 0 0-.994-2.227l-1.605-1.52a3.882 3.882 0 0 1 3.29 3.827zm.906-24.1c.795 1.744.55 4.725-.015 5.928a3.013 3.013 0 0 1-2.51-2.963 3.013 3.013 0 0 1 2.525-2.965zm-25.64.147a9.51 9.51 0 0 1 7.23 3.29c-1.058 2.736-3.127 3.68-3.723 4.193l-8.798-3.35-2.007-.765a9.53 9.53 0 0 1 7.299-3.368zM29.414 43.197c-.016.1-.032.212-.045.328l-9.374 5.747-.01.006-3.157 1.935a1.09 1.09 0 0 1-1.492-.368 1.083 1.083 0 0 1 .378-1.491l3.308-2.028.01-.005 4.935-3.025.005-.004 3.757-2.302 1.685 1.207zM13.53 51.93a3.195 3.195 0 0 0 2.74 1.538c.564 0 1.136-.148 1.655-.46l1.053-.645a3.891 3.891 0 0 1-7.26-1.926c0-2.136 1.744-3.873 3.888-3.873.191 0 .38.015.566.042l-1.555.953a3.172 3.172 0 0 0-1.432 1.884 3.186 3.186 0 0 0 .345 2.487zm11.57-1.493c0 5.217-4.26 9.461-9.496 9.461-5.236 0-9.496-4.244-9.496-9.46 0-5.218 4.26-9.462 9.496-9.462 2.246 0 4.413.802 6.115 2.228l-3.243 1.988a5.957 5.957 0 0 0-2.872-.73c-3.307 0-5.997 2.68-5.997 5.975 0 3.295 2.69 5.976 5.997 5.976 3.2 0 5.82-2.509 5.989-5.655l3.345-2.05c.107.569.162 1.147.162 1.73zm24.785 6.8H34.802a3.356 3.356 0 0 1-3.357-3.346v-9.667c0-2.185 1.615-3.977 3.674-4.314 1.88-.313 6.1.81 10.8-2.546 3.326-2.374 6.343-3.89 7.278-8.342a9.645 9.645 0 0 0-.321-5.132h1.25a1.052 1.052 0 1 0 0-2.102h-2.262l-1.105-1.851a.506.506 0 0 1 .391-.766c6.573-.468 12.379 1.451 16.539 5.425a5.116 5.116 0 0 0-3.134 4.706 5.11 5.11 0 0 0 2.975 4.634l-1.868 1.612a15.688 15.688 0 0 0-1.936-.122c-8.438 0-15.319 6.828-15.319 15.263 0 2.28.508 4.511 1.479 6.547zm5.548-16.784 2.223 2.106.002.002 7.485 7.092c.21.199.33.468.337.757.007.289-.099.564-.299.773a1.08 1.08 0 0 1-.788.337c-.28 0-.545-.106-.748-.298l-7.483-7.09-.007-.006-2.297-2.177a13.34 13.34 0 0 1 1.575-1.496z"/><path d="M40.14 53.527h-3.377a1.176 1.176 0 1 0 0 2.352h3.378a1.175 1.175 0 1 0 0-2.352z"/></g></svg>