<svg width="80" height="80" viewBox="0 0 40 40" xmlns="http://www.w3.org/2000/svg"><g fill="currentcolor"><path d="m29.39 20.407.754-6.459a4.343 4.343 0 0 0-.832-3.086l1.86-1.86a.615.615 0 0 0 0-.867.615.615 0 0 0-.868 0l-1.86 1.86a4.262 4.262 0 0 0-3.081-.828l-6.472.75c-.564.07-1.093.32-1.496.724L6.563 21.473a2.512 2.512 0 0 0 .013 3.55l.008.01 7.686 7.685a2.512 2.512 0 0 0 3.55.03l.009-.009L28.66 21.907c.404-.403.655-.932.729-1.5Zm-4.738-5.752a1.782 1.782 0 0 1 0 2.522 1.782 1.782 0 0 1-2.523 0 1.782 1.782 0 0 1 0-2.522 1.786 1.786 0 0 1 2.523 0Zm-7.686 17.222c-.507.507-1.318.485-1.825-.022l-7.69-7.69c-.507-.507-.528-1.318-.021-1.825l10.832-10.832c.208-.208.481-.343.772-.373l6.467-.754a3.074 3.074 0 0 1 2.064.494l-2.523 2.523a3.01 3.01 0 0 0-4.17.867 3.01 3.01 0 0 0 .867 4.17 3.01 3.01 0 0 0 4.17-.867 3.015 3.015 0 0 0 0-3.303l2.523-2.523a3.057 3.057 0 0 1 .49 2.059l-.746 6.467c-.035.295-.17.568-.377.776L16.966 31.877Z"/><path d="M16.745 25.327a2.053 2.053 0 0 0-.368-2.397.822.822 0 1 1 1.161 0 .615.615 0 0 0 0 .867.615.615 0 0 0 .867 0c.633-.633.78-1.604.369-2.397l.19-.191a.615.615 0 0 0 0-.867.615.615 0 0 0-.866 0l-.191.19a2.051 2.051 0 0 0-2.766.868 2.053 2.053 0 0 0 .369 2.397.822.822 0 1 1-1.162 0 .615.615 0 0 0 0-.867.615.615 0 0 0-.867 0 2.053 2.053 0 0 0-.368 2.397l-.217.217a.615.615 0 0 0 0 .867.615.615 0 0 0 .867 0l.217-.217a2.051 2.051 0 0 0 2.765-.867Z"/></g></svg>