<svg xmlns="http://www.w3.org/2000/svg" width="100" height="100" fill="none" viewBox="0 0 80 80"><path fill="currentcolor" fill-rule="evenodd" d="M16.619 23c-.265 0-.518.105-.705.29l-1.2 1.193a1 1 0 0 0 0 1.419l.215.214-2.74 4.085c-.111.165-.17.36-.17.558v7.155a1 1 0 0 0 1 1h2.71C16.284 40.144 17.527 41 18.97 41s2.686-.856 3.242-2.086h13.516C36.284 40.144 37.527 41 38.97 41s2.686-.856 3.242-2.086h4.806a1 1 0 0 0 1-1V34.45a4.138 4.138 0 0 0-2.02-3.556l-.545-.325a9.344 9.344 0 0 0-2.686-1.078l-3.682-.844-5.29-4.6a4.265 4.265 0 0 0-2.8-1.047H16.62zm25.86 13.914h3.54V34.45a2.142 2.142 0 0 0-1.044-1.838l-.546-.325a7.303 7.303 0 0 0-2.108-.846l-3.926-.9a1.014 1.014 0 0 1-.433-.22l-5.478-4.765A2.267 2.267 0 0 0 30.997 25H17.03l-.194.193.087.085a1 1 0 0 1 .125 1.267l-3.03 4.518v5.851h1.443a3.547 3.547 0 0 1 3.509-2.975c1.772 0 3.24 1.29 3.508 2.975h12.983a3.547 3.547 0 0 1 3.509-2.975c1.772 0 3.24 1.29 3.508 2.975zM19.82 26.026a1 1 0 0 0-.825.434l-2.018 2.937c-.273.398-.223.935.12 1.276l.8.795c.187.186.44.29.705.29h3.818a1 1 0 0 0 1-1v-3.732a1 1 0 0 0-1-1h-2.6zm-.664 3.733 1.19-1.733h1.074v1.733h-2.264zm6.464-3.733a1 1 0 0 0-1 1v3.733a1 1 0 0 0 1 1h8.963a.999.999 0 0 0 .676-1.737l-3.122-2.87a4.266 4.266 0 0 0-2.888-1.126h-3.63zm1 3.733v-1.733h2.63c.568 0 1.115.214 1.534.598l1.233 1.135H26.62zM55 25.5a1 1 0 0 0-1 1v15H7V34H4v16a1 1 0 0 0 1 1h3.522a5.501 5.501 0 0 0 10.956 0h38.544a5.501 5.501 0 0 0 10.956 0H74.5a1 1 0 0 0 1-1V40a1 1 0 0 0-.47-.848l-3.658-2.286-1.78-7.122a5.569 5.569 0 0 0-3.332-3.817l-.048-.02a5.726 5.726 0 0 0-2.117-.407H55zM63.5 45a5.503 5.503 0 0 0-5.293 4H56V27.5h4.5v10a1 1 0 0 0 1 1h8.713l3.287 2.054V41H70a1 1 0 0 0-1 1v3a1 1 0 0 0 1 1h3.5v3h-4.707a5.503 5.503 0 0 0-5.293-4zm-44.207 4H54v-5.5H6V49h2.707a5.503 5.503 0 0 1 10.586 0zM62.5 36.5v-9h1.595c.47 0 .937.09 1.374.265l.049.02a3.56 3.56 0 0 1 2.134 2.444l1.567 6.271H62.5zM71 43h2.5v1H71v-1zm-53.5 7.5a3.5 3.5 0 1 1-7 0 3.5 3.5 0 0 1 7 0zm46 3.5a3.5 3.5 0 1 0 0-7 3.5 3.5 0 0 0 0 7zM18.97 39c.87 0 1.553-.697 1.553-1.53 0-.834-.683-1.531-1.552-1.531a1.54 1.54 0 0 0-1.552 1.53c0 .834.683 1.531 1.552 1.531zm21.553-1.53c0 .833-.684 1.53-1.552 1.53a1.54 1.54 0 0 1-1.552-1.53c0-.834.683-1.531 1.552-1.531s1.552.697 1.552 1.53z" clip-rule="evenodd"/></svg>