<svg xmlns="http://www.w3.org/2000/svg" width="916" height="568"><g fill="none" fill-rule="evenodd"><g stroke="#9cccf7" stroke-width="2" opacity=".6"><path d="M915 72.139v5.617l-9.353 8.469-7.132 6.455-8.155-.272-6.181 3.374 1.675 6.747v4.78l-14.357 7.044-2.515 9.85v18.573l11.255 13.497-1.404 5.638-11.82 4.78v7.585l-8.493 4.598-5.593 3.012h-9.286l-14.628 14.924 2.243 2.243 2.536 16.871-4.032 9.262-5.525 12.706-3.647-.568-.837-6.205-9.081-.496 6.25 10.914 7.315 8.72-3.104 12.954-5.072 8.29h-4.96l.747-9.423-4.302-6.772L801.25 252l-.657-8.492 1.97-10.69-3.081-1.971-7.042 7.316 2.536 5.345.566 11.82 4.506 2.241 4.78 9.016 1.041 4.915.634 2.965-1.97 6.478 7.313.564 5.64 2.492-1.404 7.065 4.778 3.105-.272 2.807-4.8 4.508 8.447 6.476v8.446l-2.357 1.429-4.12 2.515 3.941 7.017-2.81 7.044-22.238 3.647v8.72l-6.454 12.387-10.416 2.265-1.61 2.717-6 10.216.295 5.636-13.499 14.337h-5.638l-4.506 9.85-7.315 3.943-.135 2.355-1.835 29.168 5.346 7.045 2.262 9.828.295.272 5.617 4.8v7.61l13.496 11.528 1.404 12.954 5.05 9.443 9.875 18.411v27.901h-20.835s.028-.242 0-.316c-.791-2.054-5.91-6.522-5.91-6.522l-7.86.61v-9.58h-5.366l-2.242-3.645v-5.344l-4.508-.294-8.99-10.418 1.134-5.912-4.508.566-2.264-4.211.294-1.246 1.97-8.606-1.427-14.63-4.777-1.676-14.336-15.762-12.116-.86-14.334 8.445-5.638 1.404-8.719-12.929-23.257-1.721-3.466-.25-.362.25-7.246 5.366-3.94-4.506-4.984 4.416-20.902.09v9.014l-3.94 5.346 10.69 10.982-5.912 3.647-14.357-6.75-7.608 9.038-12.933-.046-3.645-12.66-14.925-4.21V483l-3.08 1.97-20.563-5.346h-8.719l-27.853 12.367v5.638l-8.153 5.504-3.102 2.084-12.388 2.536-4.506 6.75-6.183.565-3.373 7.88-4.214 1.132.272 16.33c-.77 2.694-.68 5.912-.204 9.035 1.065 7.021 4.146 13.747 4.146 13.747l-3.67 2.808-15.172-4.506c-9.784-1.903-15.807-7.133-19.431-12.049-3.917-5.276-5.072-10.167-5.072-10.167-1.11-7.609-2.81-10.418-2.81-10.418-9.285-5.344-16.327-25.05-16.327-25.05a5.987 5.987 0 0 0-.295-.677c-6.726-16.149-16.306-24.073-16.306-24.073h-9.283l-2.81-3.104-15.76-.564v10.982l-9.852 7.587c-14.628-3.647-24.978-21.831-24.978-21.831l.498-9.966-4.438-5.366-27.628-33.474-29.847-2.24-2.515 11.548-53.196-6.476-25.954-15.67-35.1-21.2v-9.85H85.02l-1.383-15.288-.587-6.657-7.315-2.81v-8.447h-6.75l-1.041-6.091-5.706-1.518L51.526 325.4l-14.062-1.677-4.78-3.94.657-1.947.023-.023 2.128-6.207-1.676-3.079-1.426-3.668 1.97-5.072-2.377-5.889-1.292-3.172-5.322-13.158-2.536-2.264v-3.374l3.942-4.211v-4.214l-6.478-7.608.566-16.601-5.91-6.476.567-9.016-6.592-9.964.68-13.339 1.972-8.492L2 181.32l5.367-7.315 9.828-16.035-1.11-7.88 2.808-5.072 1.132-20.246 10.599-19.228 7.406-13.43V84.8l3.011-4.395 2.604-3.758 5.64-18.007v-5.073l5.072-5.91-3.102-5.64.362-9.172 4.686-4.573-4.482-.636.271-6.724-2.807-1.406V15l2.807-7.587h3.94l2.538 6.75 9.283 3.668 9.852 1.675v6.77l-4.212 5.913-5.64 1.949 1.132 9.014h8.153l5.64-6.75V28.52l2.242-2.81-4.508-5.91 3.239-5.637 1.269-3.083-2.536-2.536L85.02 2l34.874 10.759 43.074 11.527 14.742 3.26 1.856.408 22.308 3.601 51.134 8.22 1.608.205 17.935 2.15 91.129 11.03 8.38.386 6.181.27 64.7 2.833 9.988-.68 27.153-1.835V46.82l7.608 4.483v9.285l15.763 5.639 4.506-5.072 11.798 3.94 3.397 5.64 11.528 3.94 9.012-2.831 19.68 3.102 4.8-7.587 5.888-.566 7.882-8.446-.543-3.102 2.241-4.214 21.378.838 3.94 2.538 8.176 15.467 8.153.295 1.675-4.508 7.042 4.213.566 7.337 4.508 3.08.204 5.934.068 2.243 4.777.272v5.91l5.345 3.94 2.265 5.05 19.134-1.11 28.807-.588 11.438 11.279 8.991 13.497-3.399 5.819h-12.5l-6.319-7.223-1.97 1.132.794 6.09.61 4.6-5.91 10.689 3.94 16.33-9.013 7.313-.43 7.406-.408 6.954-9.285 3.077v4.803l10.417.566 13.362-15.4 1.54-1.768 13.792.838 12.115-9.557 8.425.271 2.241-4.503-1.949-3.942-9.011 1.132-1.404-6.476 8.99-8.72 15.196-8.153 11.844.543-1.699-5.343 1.562-.66 17.28-7.222 4.235-8.72 11.821-10.417 45.02-10.44 2.808-7.565 6.953-1.947.067-.021 1.699-3.376.271-5.346 3.963-1.402-.294-5.911-3.374-7.045 4.643-23.213h31.002l7.405 23.213 6.75.295.791 7.248L915 72.14z"/><path d="M171 24s-12.96 32.203-10.56 35.567c2.4 3.366-2.4 20.188-2.4 20.188l-2.4 7.21s5.28 7.69 4.8 11.054c-.48 3.366-8.16 10.576-7.68 12.498.48 1.923-9.6 8.171-8.64 10.575.96 2.401 3.36 3.363 1.92 7.21C144.6 132.147 135 173 135 173"/><path d="M47 53.121s11.472-.484 13.384.485c1.915.966 1.915 4.838 1.915 4.838s4.779-1.936 6.214-.967c1.434.967 1.912 6.776 1.912 6.776s0 3.872-1.433 5.808c-1.436 1.935 1.433 4.356 3.345 4.84 1.912.484 5.737-1.938 7.649-1.453 1.912.484 9.562 4.356 9.562 4.356l8.605.969 7.649-1.452 4.302 3.387 11.953-.969s8.606 0 15.775 2.42C145.004 84.583 156 87 156 87m29.274-60L180 46.701l2.877 8.65-2.397 4.324s2.397 5.287 6.231 7.209c3.834 1.922 1.917 13.934 4.794 14.893 0 0 8.148-1.438 8.148 0 0 1.443-7.189 12.977-7.189 12.977s0 3.843-1.439 5.765c-1.437 1.922.48 2.403 1.917 3.365 1.44.96 8.15-1.922 7.67.96-.479 2.881.958 8.168.958 8.168l4.314 8.65-1.917 5.284s3.357.48 3.357 1.924c0 1.44-.48 2.884 1.437 4.322 1.917 1.443 6.231 1.924 6.231 1.924s7.191 0 9.108.481c1.917.481 5.752 0 5.752 0s3.834-4.327 5.271-2.884C236.563 134.154 238 138 238 138m-221 2s150.716 46.628 211 51M355 50s-14.999 151.06-16 178"/><path d="M348.124 137.574c-6.238 2.404-51.344-3.845-59.023-3.845-7.676 0-49.424-6.729-49.424-6.729-1.92 14.42-15.355 85.078-15.355 85.078s98.964 16.863 148.671 17.54c0 0 .337 78.576-3.72 87.382 0 0-181.237-14.223-207.273-25.74M344 185s87.046 6.613 121 2.833"/><path d="M451 57s3.308 7.197 2.364 9.596c-.947 2.396-2.837 12.952.944 16.31 3.784 3.357 4.255 9.593 4.728 13.43.473 3.84-.944 10.557 0 13.434.946 2.879 4.728 11.514 4.728 14.39 0 2.88-5.201 10.557-5.201 10.557l4.727 2.877s2.837 34.543 2.364 39.338c-.473 4.798-2.837 12.953-.946 16.793 1.893 3.837.473 11.992 2.364 14.87 1.89 2.878 5.2 10.555 6.147 13.432.944 2.877-1.42 16.79 2.835 20.63 4.255 3.835 6.618 10.074 8.036 11.032 1.417.96.946 4.8 5.672 4.318 4.728-.48 5.674 0 3.31 1.918-2.364 1.919-7.565 3.36-6.145 4.798 1.417 1.439 1.417.48 3.308 2.399 1.89 1.919 2.837 6.236 2.837 6.236 2.364 0 4.728 2.4 4.728 2.4s-1.42 14.393-.473 16.79c.944 2.398 0 25.427 1.417 27.346 1.418 1.918-1.89 11.032.473 14.869 2.364 3.84 1.42 16.31 1.42 16.31 3.308 5.278 0 27.824 2.362 35.981 2.364 8.158-.471 7.675-.471 7.675l7.562.96s-.944 26.384 2.835 32.623c3.784 6.236 4.257 7.194 4.728 10.076.473 2.877 3.31 4.795 4.257 7.194.944 2.397 1.888 8.635 0 11.034-1.893 2.397-5.201 6.715-3.784 9.114 1.418 2.4 3.308 7.674 1.418 9.595-1.891 1.919-1.418 7.675-1.418 7.675m45.975-410S531.995 96.986 529.6 99.864c-2.396 2.877 0 11.032 0 11.032s-11.5 12.954-10.542 16.311c.959 3.357 1.916 5.276 1.916 10.073 0 4.798 0 10.553 3.833 11.994 3.836 1.438 8.626 1.918 12.461 5.756 3.833 3.837 3.354 5.758 7.187 7.676 3.833 1.919 3.833 8.155 3.833 10.073 0 1.919 3.356 7.194 3.356 7.194l-.958 5.756 1.437 5.278h4.79l6.23 5.278s2.876 2.398 3.835 5.275c.957 2.88 3.354 6.716.48 9.115-2.876 2.399 3.353 3.36-2.876 6.716-6.23 3.357-8.146 1.439-8.626 3.357-.48 1.919 0 10.553 0 10.553l-6.709 5.756s-3.353 16.313 1.44 19.668c4.79 3.36 13.895 6.236 15.812 10.074 1.916 3.839 1.916 11.513 4.792 14.392 2.876 2.879 3.353 8.635 3.353 8.635s3.354 6.236 8.146 6.716c4.793.48 5.752 4.797 5.752 6.716 0 1.919-6.709 4.317-1.437 7.194 5.27 2.88 7.187 4.798 7.187 4.798l.48 4.317-2.876 3.837s-8.626.48-7.189 2.88c1.439 2.398 3.356 3.836 3.356 3.836l.48 7.675s0 .96-.48 3.359-4.793 4.317-5.75 6.236c-.96 1.918-2.396 11.513-4.315 13.432-1.915 1.919-.957 2.877-3.354 4.795-2.394 1.919-8.145 10.076-6.229 11.994 1.917 1.919-3.353 4.798-3.353 4.798s-5.273 2.877-1.44 9.595c3.836 6.714-1.436 11.031.96 12.95 2.396 1.918 2.396 4.797 2.396 4.797l3.833 6.716s-4.87 2.934-3.833 4.318c0 0-8.146 16.789-6.23 22.547 1.917 5.756 4.314 6.236 4.314 6.236l26.354-4.8 2.876 8.157s-.957 6.236 1.917 7.674L601 463M143 333c-5.216-4.82-68.298-104.572-71.619-106.5-3.319-1.926 16.127-66.5 16.127-66.5"/><path d="M180 186s-21.857 124.176-24.233 128.011c-2.374 3.837-3.8.482-3.8.482l-6.178-4.795c-2.375 2.877-2.148 7.757-1.814 10.123.335 2.363 1.339 7.771 1.339 9.122 0 1.352-5.357 7.772-4.018 8.784 1.34 1.013 2.345 4.391 3.014 5.745.67 1.349 2.343 4.73 3.349 6.756 1.005 2.025 0 5.067-2.679 4.391-2.678-.675-5.023 1.352-5.023 1.352s-3.682 8.784-2.343 10.81c1.34 2.03-2.008 2.03-2.008 4.394 0 2.365-3.015 5.066-1.006 6.08 2.009 1.015 6.696 1.352 4.018 3.042-2.679 1.686-4.687 2.703-6.696 2.703-2.01 0-3.922-2.231-3.922-2.231M258 218s-29.6 207.2-26.815 216m120.532-119c1.01 0-1.01 13.878-1.01 13.878-2.021 1.693-5.39 86.645-6.067 96.122 0 0-64.02-4.061-66.38-4.061-2.357 0-3.26 2.48-3.26 2.48M368 317s108.624 7.19 130 2.292"/><path d="M351 329s47.45 1.357 50.816 1.697l1.683 42.395 4.374 3.732 7.068-1.357 3.027 4.07 8.077 3.732h5.384l4.712-1.018 5.386 3.732v2.373l8.076-1.357 4.374 1.697 3.365-.34 4.712-.677 4.375 1.017 3.701 2.373 5.722-2.035h8.414l4.711-2.713 3.365 1.358s7.52 5.86 10.658 6.321M371 253s69.782 4.416 114 .124m-10-12.836s5.748.712 14.874.712c9.128 0 43.61-5 46.99-5 3.38 0 6.761 1.073 6.761 1.073l5.375.002m-83-60.963s17.477-1.592 23.859.237c6.384 1.827 32.924-.734 37.962-1.098C532.86 174.884 548 173 548 173m-19-67.58s9.813-2.36 11.845-2.36c2.03 0 1.352-3.374 4.059-3.036 2.709.338 4.4 2.698 5.077 4.724.677 2.024 9.138 2.024 9.138 2.024s5.414.336 15.226 4.722c9.815 4.383 15.569 5.058 15.569 5.058l.675 3.373 5.753 3.71 3.724 7.757 3.066 5.554.276 11.468-.276 23.48-1.917 14.197s1.326 4.24 1.895 6.35c0 0-.337 1.688.34 4.722.677 3.037 2.03 2.024 7.105 4.05 5.077 2.023 5.077 4.383 5.077 4.383s-2.03 9.444-3.044 14.84c-1.017 5.4 4.058 37.778 4.398 41.49.34 3.709 1.014 10.79 1.014 10.79s-3.721 9.444-5.412 13.156c-1.693 3.71 0 6.07 1.014 7.42 1.014 1.349-.34 5.735-.34 5.735s-4.398 1.01-8.121 1.687c-3.721.673.677 4.045 1.016 6.07.337 2.023-.677 3.036-.677 3.036l-3.046-2.36s-4.398.336-6.768.674c-2.368.337-1.25 7.866-1.25 7.866"/><path d="M560 193.652s8.954.348 11.94.348c2.986 0 14.926-1.747 14.926-1.747l8.953-1.744L602 190M499 331.454s16.792-4.06 22.165-2.367c5.374 1.693 20.153.337 20.153.337l15.448-1.693s20.822-2.705 22.165-1.352c1.344 1.352-.334 7.445-2.015 9.476-1.678 2.03 1.344 2.37 4.367 2.03 3.022-.337 5.037-3.723 6.717-3.047M680 193s-10.237 6.732-13.64 7.392c-3.402.66-10.888 1.649-10.888 1.649l-5.786-2.64-12.93 3.302-12.93 3.297-7.825-.329M591 322.994s22.189.187 22.189-1.502v-3.713l13.825-1.352s28.667-5.4 42.159-6.414c13.49-1.012 24.281-4.053 37.096-6.416 12.815-2.364 36.422-3.037 44.516-5.401 8.094-2.363 29.68-6.077 37.773-10.129C796.652 284.016 806 278 806 278M512 408s17.217-1.332 22.616-.89C540.02 407.558 565 404 565 404m13-44s8.144-1.04 11.877-2.082c3.732-1.042-10.86.692 38.345-3.818 49.203-4.51 71.598-10.756 71.598-10.756l5.77-1.044s8.144-5.898 12.215-6.59c4.072-.696 17.645-3.124 17.645-3.124s1.358-1.042 5.091-.348c3.732.694 6.787 1.39 6.787 1.39l.338 4.51 5.77.694 16.627-4.858 14.59 10.062L797 347.413M636.148 458l2.554-4.47v-5.43s1.341-3.73-1.342-4.412c-2.683-.678-2.346-4.068-2.346-4.068l6.037-1.02 7.713-.337 12.745-1.019 14.423-2.374s6.373-1.359 9.39-.68c3.02.68 3.69 3.732 3.69 3.732l5.033.679s4.693-1.695 13.414-1.695c8.722 0 16.1-1.019 21.13-1.019 5.032 0 5.367-1.017 7.045-.338 1.676.676 4.359 4.75 5.366 4.75"/><path d="M612 355s5.527 7.066 5.874 8.411c.344 1.344 0 19.175 0 19.175s-3.455 25.907-2.766 26.915c.693 1.008-1.035 11.438.346 13.12 1.382 1.682 2.42 7.402 2.42 7.402s3.799 22.876 4.143 25.567C622.363 458.28 625 461 625 461m37.005-110v4.37s-.351-1.682 4.899 12.433c5.25 14.116 10.848 35.624 12.597 36.968 1.75 1.344 2.1 4.705 1.05 6.384-1.05 1.682-1.399 2.69-1.75 4.37-.351 1.681-.351 4.368-.351 4.368l4.55 5.716-2.8 5.04V433m24.475-91L702 348.388l4.682 2.353 3.68 1.682 7.02 5.043 5.686 7.059s.334 5.042 6.02 8.068c5.685 3.027 11.37 6.387 11.37 6.387s1.003 1.01 1.672 3.028c.67 2.015 2.34 5.377 2.34 5.377s2.675 3.025 4.013 5.044C749.82 394.446 754 396 754 396m-71.849-50s-.34-3.044 0-5.413c.338-2.368 2.71-2.707 4.402-2.707 1.694 0 .34-3.72 2.371-4.737 2.032-1.014 5.757-3.383 7.451-3.383 1.692 0 2.71-3.386 2.71-3.386l7.112-5.074 2.032-3.044c4.742-1.016 8.128-2.03 8.128-2.03S731.936 307.09 736 301m-81-100s5.488 52.564 7 57m72-91.865.674 11.865s61.342-15.933 66.735-16.609c5.392-.678 5.392 1.694 5.392 1.694l2.358 2.712s-.335 1.356 1.687 2.374c2.022 1.016 6.74 3.727 6.74 3.727l9.437 1.694s4.719 5.426 7.08 4.07c2.357-1.358-.675-2.374-.675-4.07 0-1.694 1.012-4.067 1.012-4.067s-1.012-16.95-2.36-18.983c-1.348-2.034-3.034-10.847-3.034-10.847l-1.685-9.831-3.708-12.201s-1.684-8.138-4.718-11.188c-3.033-3.05-4.719-8.475-4.719-8.475M612 289.64s9.768 2.36 11.115 2.36c1.347 0 4.716-1.01 4.716-1.01l1.685-3.036s0-1.347 8.084-5.057c8.085-3.71 17.516-9.78 17.516-9.78l3.707-4.383c.673-2.361 4.378-2.361 3.706-3.71-.676-1.349-4.38-5.731-2.023-6.07 2.359-.338 5.392-1.684 5.727-.674.336 1.013 3.033.675 5.728 2.36 2.695 1.687 4.042 4.384 4.042 4.384h8.758c3.706-1.01 7.075-1.01 7.075-1.01s-1.35-2.698.671-2.698 3.707-3.036 5.054-1.35c1.348 1.686.674 4.048.674 4.048l3.032 3.37s0 7.42 2.357 8.769c2.36 1.349 8.758 6.07 10.444 7.416 1.683 1.35 4.042 5.397 6.399 5.397 2.359 0 6.063-.336 6.063-.336l1.012-2.023c3.032.672 7.072-1.687 7.072-1.687l7.075-3.71 3.369-2.023v-7.755s-1.684-3.71 0-4.385c1.685-.674 6.134-10.725 5.861-12.637-.273-1.91.819-5.185 1.908-6.277 1.091-1.09-2.18.273 3-2.183s4.908-.82 6.272-2.183c1.362-1.365 4.361-6.004 4.907-8.19.546-2.182 1.91-2.455.819-4.367-1.092-1.91-2.727-3.275.818-1.09 3.545 2.183 4.907 3.002 6.817 3.546 1.908.546 4.088 1.366 4.088 0 0-1.363-1.635-4.64 0-4.64 1.637 0 5.728 3.823 8.727 4.913 2.999 1.093 2.214 4.574 5.725 5.187"/><path d="M714.48 179s4.538 6.43 5.344 6.979c.806.546 1.879 4.926 1.879 4.926s-.538 8.49 1.612 11.23c2.148 2.736 2.685 8.214 2.685 8.214s-1.879 15.062-1.344 16.43c.538 1.368-1.072 3.834 0 6.024 1.075 2.19-1.878 3.834-2.953 5.478-1.073 1.642-1.342 3.832-3.223 3.832 0 0-6.176 2.74-6.444 4.93-.27 2.19-.538 3.834-.538 6.026 0 2.19-.537 2.464-.537 2.464l-2.685-1.644-.806 2.19-.267 3.012s3.222-2.738 0 1.918c-3.224 4.653-3.76 6.298-3.76 6.298L701 268"/><path d="M753 247s-1.688-3.048-1.688-5.266c0-2.217-2.253-7.758-2.253-7.758l-1.406-4.987s-2.535 1.107-4.222 1.939c-1.69.83-2.815 2.77-4.786 2.493-1.97-.277-5.629-1.386-5.629-1.386l-1.69-1.939s-3.377-.83-2.532-2.773c.845-1.939-1.972-3.323-1.972-3.323-2.53.555-1.687.83-1.687.83M812 231s-2.767-6.514-2.49-8.956c.277-2.444-1.108-5.43-1.108-5.43l-3.044-4.07-6.364-.544-11.625 2.987-11.344 1.9-7.75 6.513s-3.32 2.985-1.938 5.158M814.647 170s-6.673 4.723-5.511 6.666a100.315 100.315 0 0 1 2.32 4.167l-.29 3.056 1.161 2.78.29 3.33.87 3.891 5.513 2.5-6.383 18.89 4.353 4.72-6.966-1.39"/></g><g transform="translate(81 196)"><circle cx="690" cy="70" r="5" fill="#1E88E5"/><circle cx="26" cy="136" r="5" fill="#1E88E5"/><circle cx="690" cy="70" r="11" stroke="#1E88E5" stroke-width="2" opacity=".5"/><circle cx="26" cy="136" r="11" stroke="#1E88E5" stroke-width="2" opacity=".5"/><circle cx="690" cy="70" r="25.5" stroke="#1E88E5" opacity=".2"/><circle cx="26" cy="136" r="25.5" stroke="#1E88E5" opacity=".2"/><path stroke="#1E88E5" stroke-dasharray="4" stroke-width="2" d="M690 70.101C431.157-41.727 209.823-19.76 26 136"/></g></g></svg>