<svg xmlns="http://www.w3.org/2000/svg" width="2158" height="900"><defs><style>.cls-2{fill-rule:evenodd;fill:#062f8f}</style></defs><path id="Фигура_316_1" data-name="Фигура 316 1" d="M1632 268v301h-126V268h-191c.67-.667 1.33-1.334 2-2l79-104h463l-82 106h-145Z" style="fill-rule:evenodd;stroke-linecap:round;stroke-linejoin:round;fill:none;stroke:#062f8f;stroke-width:14px"/><path id="S_1" data-name="S 1" class="cls-2" d="M1019.93 162h376.86v1c-2.06 1.739-2.39 3.715-4 6l-3 2v2c-1.33 1-2.67 2-4 3v2l-3 2v2l-3 2v2l-3 2v2l-3.99 3v2l-3 2v2l-3 2v2l-3 2v2c-1.33 1-2.67 2-4 3v2l-3 2v2c-.66.333-1.33.667-2 1-.33 1-.66 2-1 3q-1.995 1.5-4 3v2c-1 .666-2 1.333-2.99 2v2l-3 2v2c-.67.333-1.34.666-2 1-.34 1-.67 2-1 3-1.33 1-2.67 2-4 3v2l-3 2v2l-3 2v2l-3 2v2q-1.995 1.5-4 3c-.33 1-.66 2-1 3-.66.334-1.33.667-1.99 1-.61.861-3.55 6.752-4 7h-294.89c-2.59 2.153-8.34.738-11.99 2-5.47 1.892-14.517 7.289-16 13-2.465 2.489-.875 4.222-2 8h-1l1 15h1l1 4h1v2l3 2 3 4 6 2v1h3c7.88 2.992 18.58 3 29.99 3h173.93c41.81 0 84.22-.945 114.95 10h4q12.99 5.5 25.99 11c.33.666.67 1.333 1 2 1.33.333 2.67.666 4 1v1l3 1c.33.666.66 1.333 1 2h2l3 4h1.99q2.01 2.5 4 5l9 8v2l3 2v2c.66.333 1.33.667 2 1 .33 1.333.66 2.666 1 4 .66.334 1.33.667 2 1 .33 1.333.66 2.666 1 4h1l.99 4h1v3h1v2h1l6 24.99v10c.01 8.308.88 19.353-1 25.99v8h-1v5h-1v5h-1v4h-1v3h-1v4h-1v3h-1q-.495 2.5-1 5h-.99v2h-1l-3 9c-.67.333-1.34.667-2 1-.34 1.332-.67 2.666-1 4h-1c-.33 1-.67 2-1 3-.67.333-1.33.667-2 1v2c-.67.333-1.33.666-2 1-.33 1-.67 2-1 3-1.67 1.333-3.33 2.666-5 4v2q-2.49 2-5 4l-.99 2h-2q-2.01 2.5-4 5h-2c-.67 1-1.33 2-2 3h-2c-.33.666-.67 1.333-1 2l-3 1v1h-2c-.33.667-.66 1.333-1 2q-3 1-5.99 2c-.34.666-.67 1.333-1 2h-2v1h-2v1h-3v1l-4 1v1q-15.99 5-31.99 10h-5v1h-5.99v1h-6v1h-7v1h-8.99c-10.5 2.959-25.87 2-38.99 2H855v-1c2.051-1.736 2.375-3.73 4-6l4-3v-2l2-1 1-3 4-3v-2l3-2v-2l3-2v-2l4-3v-2l2-1 1-3 4-3v-2l3-2v-2l3-2v-2l4-3v-2l2-1 1-3 4-3v-2l3-2v-2l3-2v-2l4-3v-2l2-1 1-3 4-3v-2l3-2v-2l4-3 1-3 2-1c.61-.861 3.548-6.752 4-7h320.84c2.34-1.946 7.76-.825 11-2 5.5-2 14.49-7.2 15.99-13 2.23-2.233 4.94-16.984 3-22.991h-1v-3h-1c-9.5-19.489-28.99-17-56.98-16.994h-172.93c-34.35 0-69.236.712-94.961-8l-13.995-3v-1h-2v-1l-6-1v-1l-4-1v-1l-9-3-1-2-4-1-1-2-4-1-2-3h-2l-2-3h-2l-5-6-10-9v-2l-3-2v-2l-2-1v-2l-2-1-2-6h-1v-2h-1l-2-6h-1v-3h-1v-3h-1v-3h-1v-3h-1v-4h-1l-1-10h-1v-9h-1l1-32.987h1v-6l6-20.992c7.142-16.557 17.14-31.029 30.988-40.984l3-4h2l2-3h2l1-2 4-1 1-2 6-2v-1h2v-1h2v-1l6-2v-1h3v-1h2v-1h3v-1h2v-1l6-1v-1h4v-1h3v-1h4v-1h4v-1h4v-1l10-1v-1h7v-1h7v-1h9v-1c4.158-1.214 10.248 1.375 12.978-1.032Z"/><path id="S_1_копия" data-name="S 1 копия" class="cls-2" d="M464.935 162h376.851v1c-2.052 1.739-2.385 3.715-4 6l-3 2v2l-4 3v2l-3 2v2l-3 2v2l-3 2v2l-4 3v2l-3 2v2l-3 2v2l-3 2v2l-4 3v2l-3 2v2l-2 1-1 3-4 3v2l-3 2v2l-3 2v2l-2 1-1 3-4 3v2l-3 2v2l-3 2v2l-3 2v2l-4 3-1 3-2 1c-.61.861-3.549 6.752-4 7H466.934c-2.591 2.153-8.348.738-12 2-5.471 1.892-14.516 7.289-15.994 13-2.465 2.489-.875 4.222-2 8h-1l1 15h1l1 4h1v2l3 2 3 4 6 2v1h3c7.88 2.992 18.58 3 29.988 3h173.93c41.813 0 84.219-.945 114.955 10h4l25.99 11 1 2 4 1v1l3 1 1 2h2l3 4h2l4 5 9 8v2l3 2v2l2 1 1 4 2 1 1 4h1l1 4h1v3h1v2h1l6 24.99v10c0 8.308.883 19.353-1 25.99v8h-1v5h-1v5h-1v4h-1v3h-1v4h-1v3h-1l-1 5h-1v2h-1l-3 9-2 1-1 4h-1l-1 3-2 1v2l-2 1-1 3-5 4v2l-5 4-1 2h-2l-4 5h-2l-2 3h-2l-1 2-3 1v1h-2l-1 2-6 2-1 2h-2v1h-2v1h-3v1l-4 1v1l-31.988 10h-5v1h-6v1h-6v1h-7v1h-9c-10.5 2.959-25.861 2-38.985 2H300v-1c2.051-1.736 2.375-3.73 4-6l4-3v-2l2-1 1-3 4-3v-2l3-2v-2l3-2v-2l4-3v-2l2-1 1-3 4-3v-2l3-2v-2l3-2v-2l4-3v-2l2-1 1-3 4-3v-2l3-2v-2l3-2v-2l4-3v-2l2-1 1-3 4-3v-2l3-2v-2l4-3 1-3 2-1c.61-.861 3.548-6.752 4-7h320.841c2.343-1.946 7.758-.825 11-2 5.5-2 14.494-7.2 15.994-13 2.228-2.233 4.942-16.984 3-22.991h-1v-3h-1c-9.5-19.489-28.985-17-56.977-16.994H498.921c-34.351 0-69.237.712-94.962-8l-14-3v-1h-2v-1l-6-1v-1l-4-1v-1l-9-3-1-2-4-1-1-2-4-1-2-3h-2l-2-3h-2l-5-6-10-9v-2l-3-2v-2l-2-1v-2l-2-1-2-6h-1v-2h-1l-2-6h-1v-3h-1v-3h-1v-3h-1v-3h-1v-4h-1l-1-10h-1v-9h-1l1-32.987h1v-6l6-20.992c7.142-16.557 17.14-31.029 30.988-40.984l3-4h2l2-3h2l1-2 4-1 1-2 6-2v-1h2v-1h2v-1l6-2v-1h3v-1h2v-1h3v-1h2v-1l6-1v-1h4v-1h3v-1h4v-1h4v-1h4v-1l10-1v-1h7v-1h7v-1h9v-1c4.166-1.214 10.253 1.375 12.988-1.032Z"/><path d="M0 0h1786l72 110H68Z" style="stroke:#000;stroke-width:1px;fill:#062f8f;fill-rule:evenodd"/><path id="Rectangle_1_копия" data-name="Rectangle 1 копия" d="M300 628h1786l72 110H368Z" style="fill-rule:evenodd;fill:none;stroke:#062f8f;stroke-width:14px"/><text id="SAFE_SIDE_TRANSPORTATION" data-name="SAFE SIDE TRANSPORTATION" x="1230" y="900" style="font-size:100px;text-anchor:middle;font-family:&quot;Myriad Pro&quot;;font-weight:700;fill:#062f8f"><tspan x="1230">SAFE SIDE TRANSPORTATION</tspan></text></svg>