<svg width="100" height="100" viewBox="0 0 80 80" xmlns="http://www.w3.org/2000/svg"><path d="M57.497 36.215h10.356c6.588 0 11.947 5.359 11.947 11.946v2.405a2.33 2.33 0 0 1-2.327 2.328h-4.284a7.12 7.12 0 0 1-10.672 0H22.688a7.12 7.12 0 0 1-5.336 2.404 7.146 7.146 0 0 1-6.42-4.022L5.56 49.74A3.545 3.545 0 0 1 3 46.347v-2.995c0-.88.49-1.646 1.212-2.042l.046-4.228a2.316 2.316 0 0 1 1.832-2.248l1.386-.302-1.641-3.282h-1.71a1.125 1.125 0 0 1 0-2.25h7.215a1.125 1.125 0 0 1 0 2.25H8.35l1.394 2.788 19.457-4.24A34.808 34.808 0 0 1 36.609 29h10.22c2.227 0 4.321.868 5.896 2.443l4.772 4.772ZM5.25 46.347c0 .569.382 1.075.928 1.23l4.062 1.161a7.197 7.197 0 0 1-.026-.577c0-3.935 3.202-7.137 7.138-7.137h7.833c2.228 0 4.322.868 5.897 2.443l.583.583a6.05 6.05 0 0 0 4.306 1.784H50.23a3.66 3.66 0 0 0 2.605-1.08l6.29-6.29H45.008a1.125 1.125 0 0 1 0-2.25h9.307l-3.18-3.18a6.05 6.05 0 0 0-4.306-1.784h-7.911v4.964h1.28a1.125 1.125 0 0 1 0 2.25h-4.81a3.534 3.534 0 0 1-3.53-3.53v-3.332c-.73.107-1.457.237-2.178.394L6.569 37.032a.077.077 0 0 0-.061.075l-.043 3.917h2.47a1.125 1.125 0 0 1 0 2.25H5.327a.077.077 0 0 0-.077.078v2.995ZM36.668 31.25v4.965h-1.28c-.706 0-1.28-.575-1.28-1.28v-3.587a32.526 32.526 0 0 1 2.501-.098h.059ZM77.55 50.566a.077.077 0 0 1-.077.078h-2.929c.288-.774.446-1.61.446-2.483 0-3.935-3.201-7.137-7.137-7.137-3.935 0-7.137 3.202-7.137 7.137 0 .873.158 1.709.446 2.483h-37.12a7.11 7.11 0 0 0-1.497-7.37h2.64a6.05 6.05 0 0 1 4.306 1.784l.583.583a8.285 8.285 0 0 0 5.897 2.443H50.23a5.896 5.896 0 0 0 4.197-1.738l7.881-7.881h5.546c5.347 0 9.697 4.35 9.697 9.696v2.405Zm-60.198 2.482a4.893 4.893 0 0 1-4.888-4.887 4.893 4.893 0 0 1 4.888-4.887 4.893 4.893 0 0 1 4.887 4.887 4.893 4.893 0 0 1-4.887 4.887Zm45.614-4.887a4.893 4.893 0 0 0 4.887 4.887 4.893 4.893 0 0 0 4.887-4.887 4.893 4.893 0 0 0-4.887-4.887 4.893 4.893 0 0 0-4.887 4.887Zm-46.745 0c0-.621.503-1.125 1.125-1.125a1.13 1.13 0 0 1 1.13 1.125 1.12 1.12 0 0 1-1.118 1.125h-.012a1.125 1.125 0 0 1-1.125-1.125Zm51.626-1.125a1.125 1.125 0 1 0 0 2.25h.012a1.12 1.12 0 0 0 1.12-1.125 1.13 1.13 0 0 0-1.132-1.125Z" fill="currentcolor" fill-rule="evenodd"/></svg>