<svg width="80" height="80" viewBox="0 0 40 40" xmlns="http://www.w3.org/2000/svg"><g fill="currentcolor"><path d="m33.219 19.984-7.59-4.76a.468.468 0 0 0-.661.179 6.14 6.14 0 0 1-2.53 2.543 6.101 6.101 0 0 1-8.261-2.57.47.47 0 0 0-.647-.151l-7.589 4.759a.939.939 0 0 0-.441.793v1.15c0 .518.42.938.939.938h.469v9.856c0 .519.42.94.939.94h.938a.94.94 0 0 0 .94-.94V21.457h19.711v11.264c0 .519.42.94.939.94h.938a.94.94 0 0 0 .94-.94v-9.856h.468a.94.94 0 0 0 .94-.938v-1.15a.94.94 0 0 0-.442-.793Zm-.498 1.943h-.469a.939.939 0 0 0-.939.938v9.856h-.938V21.457a.939.939 0 0 0-.94-.938H9.725a.939.939 0 0 0-.939.938v11.264h-.938v-9.856a.939.939 0 0 0-.939-.938h-.47v-1.145l7.181-4.487a7.069 7.069 0 0 0 2.258 2.248 7.04 7.04 0 0 0 9.664-2.248l7.18 4.487v1.145Z"/><path d="M19.58 5.5a7.04 7.04 0 0 0-7.04 7.04c0 1.147.283 2.275.826 3.285a7.077 7.077 0 0 0 2.516 2.704 6.998 6.998 0 0 0 3.698 1.051 6.998 6.998 0 0 0 3.698-1.07 7.078 7.078 0 0 0 2.516-2.685 6.928 6.928 0 0 0 .826-3.285 7.04 7.04 0 0 0-7.04-7.04Zm5.388 9.903a6.14 6.14 0 0 1-2.53 2.543 6.101 6.101 0 0 1-8.246-2.543 5.994 5.994 0 0 1-.713-2.863 6.101 6.101 0 0 1 12.202 0 5.999 5.999 0 0 1-.713 2.863Zm4.937 6.993H13.48a.47.47 0 1 0 0 .939h16.426a.47.47 0 1 0 0-.939Zm-18.304 0H9.255a.47.47 0 1 0 0 .939H11.6a.47.47 0 1 0 0-.939Zm18.304 1.877H13.48a.47.47 0 1 0 0 .939h16.426a.47.47 0 1 0 0-.939Zm-18.304 0H9.255a.47.47 0 1 0 0 .939H11.6a.47.47 0 1 0 0-.939Z"/><path d="M22.396 12.54h-.939V8.785a.939.939 0 0 0-.938-.938H18.64a.939.939 0 0 0-.938.938v3.755h-.939a.939.939 0 0 0-.662 1.605l2.816 2.816a.938.938 0 0 0 1.324-.005l2.816-2.816a.939.939 0 0 0-.662-1.6Zm-2.816 3.755-2.816-2.816h.939c.518 0 .938-.42.938-.939V8.785h1.878v3.755c0 .518.42.939.938.939h.939l-2.816 2.816Z"/></g></svg>