<svg xmlns="http://www.w3.org/2000/svg" width="100" height="100" fill="none"><path fill="currentcolor" fill-rule="evenodd" d="M39.67 27c0-.552.449-1 1-1h6.153a1 1 0 0 1 1 1v1.563h12.842a4.247 4.247 0 0 1 4.246 4.247 7.46 7.46 0 0 1-1.165 4.003l-.187.293a1 1 0 0 1-.844.464h-1.72l7.256 8.25c.16.183.249.418.249.661v6.835a1 1 0 0 1-1 1h-5.577a4.847 4.847 0 0 1-9.571 0H37.088l-7.305.08a4.848 4.848 0 0 1-9.558-.08h-3.307a.998.998 0 0 1-.855-.481l-3.418-5.64a.995.995 0 0 1-.145-.518V33.511c0-.841.196-1.67.572-2.422l.109-.218a4.17 4.17 0 0 1 3.733-2.308h22.757V27zm20.24 26.316c0-.088.011-.174.033-.255a2.848 2.848 0 0 0-5.651.488 2.846 2.846 0 0 0 5.689.139.997.997 0 0 1-.071-.372zm6.591-1h-4.675a4.847 4.847 0 0 0-9.376 0h-.696V37.57h6.58l8.167 9.288v5.459zm-46.177 0a4.847 4.847 0 0 1 9.396.08l6.363-.069V35.203a1 1 0 0 1 1-1h7.69a1 1 0 0 1 1 1v17.113h3.981V36.57a1 1 0 0 1 1-1h11.409a5.46 5.46 0 0 0 .75-2.76 2.248 2.248 0 0 0-2.247-2.247H16.914a2.17 2.17 0 0 0-1.944 1.202l-.11.218c-.236.475-.36.997-.36 1.528v13.887l2.981 4.918h2.842zM41.67 28.563h4.152V28H41.67v.563zm2.101 23.753V36.203h-5.69v16.114h5.69zm-26.83-17.114a1 1 0 0 1 1-1h14.696a1 1 0 0 1 1 1v7.007a1 1 0 0 1-1 1H17.942a1 1 0 0 1-1-1v-7.007zm2 1v5.007h12.696v-5.007H18.94zm34.734 4.044a1 1 0 0 1 1-1h2.163a1 1 0 0 1 .752.341l4.846 5.539a1 1 0 0 1-.752 1.658h-7.009a1 1 0 0 1-1-1v-5.538zm2 1v3.538h3.805l-3.096-3.538h-.709zm17.824 3.01a1 1 0 0 1 1-1h9.095c.725 0 1.444.138 2.117.407l.048.02a5.56 5.56 0 0 1 3.332 3.817l1.78 7.122 3.658 2.286a1 1 0 0 1 .47.848v10a1 1 0 0 1-1 1h-5.522a5.501 5.501 0 0 1-10.956 0h-3.027l-40.5-.244a5.5 5.5 0 0 1-10.988-.006h-2.512A5.5 5.5 0 0 1 9.5 68.318H6a1 1 0 0 1-1-1v-16h3v7.507l65.5.424V44.256zM9.851 66.318a5.502 5.502 0 0 1 10.365.188h3.068a5.502 5.502 0 0 1 10.433.004l39.783.24v-5.5L7 60.817v5.5h2.851zm67.856.438a5.502 5.502 0 0 1 10.586 0H93v-3h-3.5a1 1 0 0 1-1-1v-3a1 1 0 0 1 1-1H93v-.446l-3.287-2.054H81a1 1 0 0 1-1-1v-10h-4.5v21.5h2.207zM82 45.256v9h6.72l-1.569-6.272a3.562 3.562 0 0 0-2.133-2.444l-.049-.02a3.714 3.714 0 0 0-1.374-.264H82zm11 15.5h-2.5v1H93v-1zm-64.5 11a3.5 3.5 0 1 0 0-7 3.5 3.5 0 0 0 0 7zm58-3.5a3.5 3.5 0 1 1-7 0 3.5 3.5 0 0 1 7 0zM27.857 53.549a2.846 2.846 0 1 1-5.691 0 2.846 2.846 0 0 1 5.691 0zM18.5 68.256a3.5 3.5 0 1 1-7 0 3.5 3.5 0 0 1 7 0z" clip-rule="evenodd"/></svg>